<svg width="55" height="55" viewBox="0 0 55 55" fill="none" xmlns="http://www.w3.org/2000/svg">
<path d="M28.3701 21.5714L29.248 12.1789C29.2726 11.9163 29.239 11.6515 29.1495 11.4033C29.0601 11.1551 28.917 10.9298 28.7304 10.7432C28.5439 10.5567 28.3186 10.4136 28.0704 10.3241C27.8223 10.2347 27.5574 10.201 27.2948 10.2256L17.8524 11.1083C17.5127 11.1381 17.1887 11.265 16.9191 11.4738C16.6494 11.6827 16.4456 11.9647 16.3317 12.2861C16.2191 12.616 16.2023 12.971 16.2833 13.31C16.3643 13.649 16.5396 13.9581 16.7891 14.2015L18.7946 16.207L0.109317 34.8922C0.0468707 34.9547 0.00956871 35.038 0.00450004 35.1262C-0.000568633 35.2145 0.0269493 35.3015 0.0818243 35.3707C0.136699 35.44 0.215107 35.4867 0.302147 35.5019C0.389187 35.5171 0.478793 35.4999 0.553936 35.4534L8.9554 30.2502C9.01164 30.2153 9.07639 30.1966 9.14255 30.1962C9.20871 30.1957 9.27372 30.2134 9.33047 30.2474C9.38721 30.2814 9.43349 30.3304 9.46424 30.389C9.49498 30.4476 9.509 30.5135 9.50476 30.5795L9.3013 33.7521C9.29659 33.8252 9.31427 33.898 9.35197 33.9608C9.38968 34.0236 9.44562 34.0734 9.51235 34.1036C9.57908 34.1338 9.65343 34.1429 9.72548 34.1298C9.79753 34.1166 9.86386 34.0818 9.91565 34.03L23.2667 20.6789L25.3106 22.7227C25.5445 22.9594 25.8402 23.1256 26.164 23.2025C26.4878 23.2794 26.8267 23.2639 27.142 23.1577C27.4782 23.0404 27.7732 22.8281 27.9912 22.5466C28.2092 22.265 28.3408 21.9262 28.3701 21.5714Z" fill="#D57028"/>
<path d="M53.6951 22.1457L54.9897 8.29541C55.0201 7.97153 54.9786 7.64493 54.8683 7.3389C54.758 7.03287 54.5815 6.75494 54.3515 6.52491C54.1215 6.29488 53.8436 6.11841 53.5375 6.00807C53.2315 5.89774 52.9049 5.85626 52.581 5.88659L38.7308 7.18134C38.3219 7.2171 37.9313 7.36697 37.6035 7.61386C37.2756 7.86075 37.0237 8.19476 36.8764 8.57783C36.7231 8.98931 36.6925 9.43643 36.7882 9.86497C36.884 10.2935 37.1021 10.6851 37.4159 10.9921L40.6665 14.2427L6.40669 48.5028C6.34212 48.5672 6.30435 48.6536 6.30102 48.7448C6.29769 48.8359 6.32903 48.9249 6.38874 48.9938C6.44844 49.0627 6.53205 49.1065 6.62272 49.1162C6.71339 49.1259 6.80437 49.1008 6.87731 49.0461L25.7943 34.8977C25.8504 34.8558 25.9175 34.8311 25.9874 34.8267C26.0572 34.8223 26.1269 34.8383 26.1878 34.8728C26.2487 34.9074 26.2983 34.9589 26.3304 35.0212C26.3625 35.0834 26.3758 35.1536 26.3686 35.2233L25.8677 40.0709C25.86 40.1449 25.8755 40.2195 25.912 40.2844C25.9484 40.3493 26.0041 40.4013 26.0713 40.4333C26.1385 40.4653 26.214 40.4757 26.2873 40.463C26.3607 40.4504 26.4283 40.4154 26.4809 40.3628L46.6333 20.2104L49.884 23.461C50.191 23.7749 50.5826 23.993 51.0111 24.0888C51.4397 24.1846 51.8868 24.154 52.2983 24.0007C52.6815 23.8534 53.0156 23.6014 53.2626 23.2734C53.5095 22.9455 53.6594 22.5547 53.6951 22.1457Z" fill="#20222F"/>
</svg>
