<svg width="232" height="48" viewBox="0 0 232 48" fill="none" xmlns="http://www.w3.org/2000/svg">
<path fill-rule="evenodd" clip-rule="evenodd" d="M45.5385 24C45.5385 35.8953 35.8953 45.5385 24 45.5385C12.1047 45.5385 2.46154 35.8953 2.46154 24C2.46154 12.1047 12.1047 2.46154 24 2.46154C35.8953 2.46154 45.5385 12.1047 45.5385 24ZM24 48C37.2548 48 48 37.2548 48 24C48 10.7452 37.2548 0 24 0C10.7452 0 0 10.7452 0 24C0 37.2548 10.7452 48 24 48Z" fill="#F9F9F9"/>
<path d="M29.9393 21.4043C30.4192 21.3972 31.111 21.3063 31.2755 21.2905C31.2755 21.2905 32.1216 21.2091 32.9363 20.8464C34.4866 20.1563 35.296 18.7032 35.3363 18.6288C36.1983 17.0343 36.1816 14.7734 34.7987 13.1273C33.0691 11.0687 30.0177 10.9424 28.1039 11.955C26.7039 12.6959 26.0684 13.964 25.9919 14.1219C25.8937 14.3247 25.6398 14.889 25.5196 16.7524V25.9594H29.1956V29.157H25.6438L25.6565 31.6631C25.6392 32.8027 25.3161 34.7298 24.2066 36.3018C23.9726 36.6333 22.0988 39.1992 18.6402 39.72C15.1771 40.2415 11.2942 38.5364 9.65243 35.1541C8.27979 32.3264 8.84942 29.1006 10.5135 26.924C10.6553 26.7385 12.4802 24.4106 15.4114 23.7951C15.7499 23.7239 16.0066 23.6891 16.4898 23.6305C18.3216 23.4085 20.8765 23.4387 22.413 23.4001L22.4302 26.6373C21.4888 26.6465 19.7215 26.6386 19.2132 26.6373C19.0057 26.6368 18.4667 26.6269 17.6778 26.6556C17.1869 26.6735 16.888 26.6944 16.7235 26.7102C16.7235 26.7102 15.8775 26.7916 15.0627 27.1543C13.5124 27.8444 12.703 29.2974 12.6627 29.3718C11.8008 30.9664 11.8175 33.2273 13.2003 34.8734C14.93 36.932 17.9813 37.0583 19.8951 36.0457C21.2951 35.3048 21.9307 34.0367 22.0071 33.8788C22.1054 33.6759 22.3592 33.1117 22.4795 31.2483L22.3552 18.6806C22.3473 17.9485 22.3373 16.6828 22.3425 16.3376C22.3598 15.198 22.683 13.2709 23.7924 11.6989C24.0264 11.3674 25.9002 8.80152 29.3588 8.28072C32.8219 7.75916 36.7048 9.46428 38.3466 12.8466C39.7192 15.6743 39.1496 18.9001 37.4856 21.0767C37.3438 21.2622 35.5322 23.5661 32.601 24.1817C32.2625 24.2528 31.9998 24.2969 31.5014 24.3373C29.6924 24.4839 31.0255 24.3742 29.9494 24.453L29.9394 21.4536" fill="#288CD5"/>
<path d="M59.9435 30V18.0992H67.8232V20.1737H62.4597V23.0094H67.3002V25.0839H62.4597V30H59.9435ZM71.3898 30H68.6935L72.8019 18.0992H76.0444L80.1469 30H77.4506L74.4696 20.8187H74.3767L71.3898 30ZM71.2213 25.3222H77.5901V27.2863H71.2213V25.3222ZM85.4046 18.0992V30H82.8884V18.0992H85.4046ZM88.7838 30V18.0992H93.4791C94.3778 18.0992 95.1449 18.2599 95.7802 18.5815C96.4194 18.8991 96.9056 19.3505 97.2387 19.9354C97.5758 20.5165 97.7443 21.2003 97.7443 21.9867C97.7443 22.777 97.5738 23.4569 97.2329 24.0263C96.892 24.5919 96.3981 25.0258 95.7511 25.328C95.1081 25.6302 94.3294 25.7812 93.4151 25.7812H90.2714V23.759H93.0084C93.4887 23.759 93.8878 23.6932 94.2054 23.5615C94.5231 23.4298 94.7594 23.2322 94.9144 22.9687C95.0732 22.7053 95.1526 22.378 95.1526 21.9867C95.1526 21.5916 95.0732 21.2584 94.9144 20.9872C94.7594 20.716 94.5211 20.5107 94.1996 20.3713C93.8819 20.2279 93.481 20.1562 92.9967 20.1562H91.2999V30H88.7838ZM95.2107 24.5842L98.1685 30H95.3909L92.497 24.5842H95.2107ZM105.05 30H100.832V18.0992H105.085C106.282 18.0992 107.313 18.3374 108.177 18.8139C109.04 19.2865 109.705 19.9664 110.17 20.8536C110.638 21.7407 110.873 22.8022 110.873 24.038C110.873 25.2776 110.638 26.343 110.17 27.234C109.705 28.125 109.037 28.8088 108.165 29.2853C107.297 29.7618 106.259 30 105.05 30ZM103.348 27.8441H104.946C105.689 27.8441 106.315 27.7124 106.823 27.449C107.334 27.1817 107.718 26.7691 107.973 26.2113C108.233 25.6495 108.363 24.9251 108.363 24.038C108.363 23.1586 108.233 22.44 107.973 21.8821C107.718 21.3243 107.336 20.9136 106.828 20.6502C106.321 20.3867 105.695 20.255 104.951 20.255H103.348V27.8441ZM114.046 30V18.0992H122.065V20.1737H116.562V23.0094H121.652V25.0839H116.562V27.9255H122.088V30H114.046ZM127.426 30H124.729L128.838 18.0992H132.08L136.183 30H133.487L130.505 20.8187H130.413L127.426 30ZM127.257 25.3222H133.626V27.2863H127.257V25.3222ZM138.924 30V18.0992H141.44V27.9255H146.542V30H138.924ZM155.701 18.0992H158.804L162.081 26.095H162.221L165.498 18.0992H168.601V30H166.161V22.254H166.062L162.982 29.9419H161.32L158.24 22.2249H158.141V30H155.701V18.0992ZM174.035 30H171.338L175.447 18.0992H178.689L182.792 30H180.095L177.114 20.8187H177.021L174.035 30ZM173.866 25.3222H180.235V27.2863H173.866V25.3222ZM185.533 30V18.0992H190.228C191.127 18.0992 191.894 18.2599 192.53 18.5815C193.169 18.8991 193.655 19.3505 193.988 19.9354C194.325 20.5165 194.494 21.2003 194.494 21.9867C194.494 22.777 194.323 23.4569 193.982 24.0263C193.641 24.5919 193.147 25.0258 192.501 25.328C191.857 25.6302 191.079 25.7812 190.165 25.7812H187.021V23.759H189.758C190.238 23.759 190.637 23.6932 190.955 23.5615C191.272 23.4298 191.509 23.2322 191.664 22.9687C191.823 22.7053 191.902 22.378 191.902 21.9867C191.902 21.5916 191.823 21.2584 191.664 20.9872C191.509 20.716 191.271 20.5107 190.949 20.3713C190.631 20.2279 190.23 20.1562 189.746 20.1562H188.049V30H185.533ZM191.96 24.5842L194.918 30H192.14L189.246 24.5842H191.96ZM197.581 30V18.0992H200.097V23.3465H200.254L204.537 18.0992H207.552L203.136 23.4278L207.605 30H204.595L201.335 25.1072L200.097 26.618V30H197.581ZM210.172 30V18.0992H218.191V20.1737H212.688V23.0094H217.778V25.0839H212.688V27.9255H218.214V30H210.172ZM221.047 20.1737V18.0992H230.821V20.1737H227.178V30H224.691V20.1737H221.047Z" fill="#F9F9F9"/>
<path d="M150.918 30.1511C150.535 30.1511 150.205 30.0155 149.93 29.7443C149.659 29.4693 149.524 29.14 149.524 28.7565C149.524 28.3768 149.659 28.0514 149.93 27.7802C150.205 27.509 150.535 27.3734 150.918 27.3734C151.29 27.3734 151.616 27.509 151.895 27.7802C152.173 28.0514 152.313 28.3768 152.313 28.7565C152.313 29.0121 152.247 29.2465 152.115 29.4596C151.987 29.6688 151.819 29.8373 151.61 29.9651C151.401 30.0891 151.17 30.1511 150.918 30.1511Z" fill="#288CD5"/>
</svg>
