<svg width="598" height="637" viewBox="0 0 598 637" fill="none" xmlns="http://www.w3.org/2000/svg">
<path d="M86.8119 303.846C87.2813 304.042 87.7714 304.173 88.2688 304.24C87.7233 304.348 87.138 304.53 86.544 304.877C86.4499 304.932 86.35 304.984 86.2454 305.034C86.4404 304.798 86.5686 304.559 86.652 304.359C86.7262 304.18 86.7753 304.005 86.8119 303.846ZM537.22 199.542C537.811 201.713 540.334 202.103 541.412 203.887C542.06 204.962 541.999 206.578 540.945 207.26C539.914 207.929 538.517 207.414 537.563 206.648C536.602 205.882 535.81 204.868 534.685 204.384C533.096 203.698 531.259 204.233 529.684 204.952C525.052 207.068 521.173 210.795 518.872 215.337C517.898 217.256 516.904 219.574 514.809 220.058C514.234 220.189 513.626 220.162 513.072 220.364C511.887 220.797 511.285 222.171 511.292 223.434C511.299 224.694 511.769 225.901 512.098 227.117C513.697 233.03 511.745 239.76 507.232 243.899C506.473 244.599 505.559 245.442 505.74 246.461C505.841 247.034 506.274 247.477 506.627 247.942C508.988 251.075 507.759 255.585 505.908 259.047C504.064 262.51 501.616 265.98 501.791 269.901C501.828 270.691 501.965 271.502 501.737 272.259C501.21 273.991 499.017 274.604 497.22 274.378C495.423 274.154 493.686 273.386 491.88 273.497C491.322 273.53 490.744 273.661 490.321 274.028C489.589 274.662 489.539 275.762 489.549 276.732C489.576 279.672 491.369 290.149 488.692 292.002C488.061 292.441 487.194 292.405 486.523 292.784C484.88 293.711 485.377 296.149 485.921 297.954C487.157 302.041 487.473 306.405 486.835 310.627C486.55 312.512 486.002 314.5 484.544 315.731C483.087 316.96 480.487 316.95 479.564 315.282C479.963 316.774 477.461 317.558 476.356 316.477C475.255 315.397 475.258 313.658 475.238 312.113C475.177 307.348 474.16 302.597 472.269 298.224C471.812 297.176 471.298 296.094 471.352 294.952C471.392 294.094 471.758 293.275 471.795 292.416C471.829 291.602 471.57 290.809 471.302 290.041C470.217 286.945 468.907 283.927 467.379 281.022C465.176 282.415 464.685 285.385 464.561 287.993C464.437 290.601 464.346 293.503 462.506 295.355C460.665 297.206 456.507 296.358 456.689 293.753C455.637 294.71 454.099 295.096 452.722 294.748C454.378 289.859 449.854 284.968 449.79 279.803C449.709 273.714 455.778 269.314 461.642 267.674C460.91 265.336 464.386 263.972 465.367 261.725C466.291 259.606 464.907 256.731 465.938 254.876L465.431 254.301C459.308 254.637 453.189 254.974 447.073 255.312C440.712 255.66 434.028 256.174 427.802 254.506C427.093 254.314 426.341 254.07 425.877 253.497C425.356 252.857 425.313 251.964 425.296 251.139C425.226 247.289 425.236 243.44 425.33 239.592C423.479 241.816 419.811 241.608 417.447 239.942C416.53 239.296 415.734 238.473 414.723 237.989C413.712 237.506 412.359 237.462 411.603 238.285C411.187 238.735 411.005 239.374 410.542 239.77C409.518 240.634 407.915 239.753 407.18 238.635C406.448 237.512 406.048 236.108 404.963 235.325C403.674 236 398.004 242.168 401.054 243.272C401.867 243.566 402.817 243.596 403.334 244.357C404.191 245.612 405.504 246.106 406.354 247.494C407.123 248.761 409.259 246.874 410.411 247.339C412.03 247.988 410.938 250.233 412.671 250.709C414.861 251.312 414.656 251.799 415.106 253.957C415.969 258.027 409.753 256.473 407.983 257.652C406.636 258.55 405.991 258.058 405.776 260.115C405.591 261.917 405.118 263.58 403.082 263.843C399.563 264.295 402.79 269.084 404.288 270.344C406.065 271.834 411.039 269.252 412.013 271.982C412.51 273.377 411.862 275.226 411.946 276.647C412.057 278.536 412.255 279.433 410.871 280.983C409.464 282.561 409.598 283.939 411.395 285.158C413.068 286.292 413.632 287.459 413.497 289.472C413.333 291.805 413.548 291.099 415.21 291.606C416.638 292.04 418.176 293.842 417.202 295.35C415.892 297.383 416.406 297.624 416.749 299.903C416.977 301.395 415.929 302.922 416.705 304.328C417.555 305.874 417.769 306.217 417.87 307.68C417.924 308.54 418.455 310.576 418.928 311.272C420.728 313.919 420.977 316.448 419.758 319.439C418.508 322.521 413.501 318.689 412.631 320.142C411.667 321.758 411.103 322.495 409.178 322.495C408.641 322.495 405.4 323.542 405.208 323.201C404.832 322.526 405.219 319.3 404.201 319.3C403.099 319.3 404.04 322.484 403.019 322.831C401.336 323.399 401.313 323.399 400.97 325.057C400.678 326.463 399.207 326.306 398.008 326.529C396.557 326.795 393.904 326.442 392.94 327.59C391.72 329.046 389.078 328.258 387.656 329.667C386.741 330.578 384.723 332.543 385.539 333.937C386.507 335.582 388.361 335.988 388.604 338.045C388.815 339.845 388.587 342.026 387.377 343.454C386.844 344.08 384.921 345.214 385.14 346.142C387.125 354.52 371.22 360.372 365.637 362.727C364.2 363.334 362.426 363.905 361.188 362.953C361.006 365.311 358.587 366.706 356.715 368.148C354.068 370.189 352.127 372.99 350.231 375.746C349.717 376.493 349.201 377.243 348.685 377.993C345.165 383.104 342.166 388.728 336.09 391.132C333.946 391.982 331.453 392.536 330.153 394.44C328.884 396.298 329.198 398.855 328.126 400.834C326.917 403.059 324.303 404.023 321.968 405.001C317.949 406.684 314.158 408.911 310.731 411.601C310.495 411.788 310.248 411.989 310.132 412.27C309.838 412.97 310.465 413.678 310.886 414.311C312.29 416.415 311.495 419.406 309.76 421.244C308.024 423.082 305.578 424.042 303.216 424.946C301.075 425.765 298.634 426.577 296.574 425.573C295.379 424.992 294.186 423.808 292.95 424.299C292.046 424.656 291.707 425.727 291.423 426.657C290.265 430.426 288.215 433.917 285.486 436.763C284.95 437.323 284.235 437.901 283.486 437.706C282.755 437.517 282.412 436.705 281.925 436.127C280.886 434.892 278.972 434.688 277.472 435.284C275.972 435.881 274.82 437.117 273.857 438.414C271.795 441.195 269.245 445.756 269.458 449.368C269.65 452.627 272.031 455.771 272.623 459.036C272.964 460.929 271.823 461.076 270.621 462.497C269.42 463.919 271.073 465.862 271.677 467.116C272.67 469.193 273.461 471.431 274.16 473.625C275.638 478.239 271.341 472.037 270.539 474.548C270.213 475.578 272.167 476.286 272.801 476.643C274.528 477.617 275.259 479.143 275.389 481.062C275.523 483.073 276.09 485.021 274.889 486.712C274.045 487.921 273.675 489.941 272.654 490.932C272.067 491.499 268.806 492.485 268.797 493.03C268.779 494.008 271.19 494.971 271.199 496.101C271.205 496.753 268.098 499.479 267.652 499.842C265.984 501.2 265.94 501.613 265.307 503.591C264.855 505.012 264.254 506.432 263.948 507.895C263.659 509.365 266.243 510.109 264.285 511.601C262.912 512.66 264.126 514.4 264.757 515.615C265.612 517.27 265.581 518.848 265.144 520.61C264.779 522.088 265.153 523.929 265.736 525.309C266.23 526.509 265.776 528.446 265.801 529.774C265.816 530.517 265.648 531.812 266.283 532.377C266.655 532.709 267.368 532.917 267.025 533.581C266.445 534.69 263.636 535.004 262.557 535.16C260.378 535.474 259.319 535.408 257.283 534.628C255.728 534.03 254.693 534.872 253.719 536.074C252.552 537.513 254.793 538.826 254.23 539.209C252.873 540.125 251.743 541.556 250.706 542.811C248.65 545.289 245.815 547.995 249.244 550.724C250.079 551.387 250.487 552.086 251.187 552.792C251.77 553.368 250.7 553.751 250.481 554.203C250.128 554.953 247.667 554.885 246.883 555.082C245.432 555.445 243.959 555.202 242.504 555.584C240.452 556.136 239.748 557.072 237.391 556.395C236.365 556.1 233.823 558.117 233.463 559.047C233.093 560.002 233.152 561.676 233.293 562.683C233.521 564.301 233.368 569.143 231.392 569.639C228.592 570.339 225.748 571.532 223.558 573.465C221.181 575.562 219.531 578.532 216.415 574.982C214.184 572.469 211.292 573.906 209.281 570.722C208.513 569.507 209.218 567.983 207.495 568.315C205.708 568.659 204.627 566.6 203.679 565.437C202.439 563.91 200.14 563.372 199.389 561.501C198.832 560.117 198.808 558.667 197.532 557.672C195.94 556.428 197.155 554.911 196.751 553.295C196.435 552.035 195.313 551.311 195.011 549.83C194.336 546.471 194.143 543.564 192.634 540.515C192.294 539.825 191.127 536.789 192.396 536.814C193.776 536.842 194.122 538.908 195.376 539.132C196.455 539.328 193.29 535.638 193.39 535.759C193.169 535.487 192.831 534.358 192.396 534.363C192.055 534.367 191.798 535.095 191.433 534.956C190.831 534.73 191.545 532.746 190.549 532.266C189.577 531.798 189.161 530.051 188.638 529.215C188.06 528.271 188.502 526.657 188.339 525.608C188.177 524.539 187.248 524.084 187.136 522.94C187 521.501 186.918 520.263 185.916 519.144C184.956 518.069 185.556 516.592 184.599 515.44C183.626 514.263 183.359 513.512 182.647 512.212C182.11 511.234 182.268 509.664 181.517 508.854C179.956 507.164 178.473 505.577 177.19 503.618C176.636 502.761 175.085 503.05 174.261 502.273C173.447 501.505 172.942 500.535 172.487 499.528C171.479 497.287 170.764 494.86 170.054 492.507C169.889 491.953 169.5 490.39 168.902 490.069C167.526 489.33 168.504 487.975 168.037 486.712C167.701 485.82 166.486 485.546 166.274 484.585C165.883 482.814 165.998 480.797 165.788 478.985C165.592 477.289 165.492 475.722 165.55 474.021C165.604 472.467 164.891 471.725 164.284 470.39C163.623 468.953 163.508 467.656 162.617 466.277C162.169 465.59 161.55 464.757 161.552 463.89C161.702 463.473 161.882 463.068 162.096 462.678C161.707 460.205 160.482 458.795 159.114 457.026C158.353 456.041 159.034 455.454 159.005 454.446C158.973 453.417 157.038 453.513 156.384 453.224C155.911 453.012 156.195 451.249 156.144 450.828C156 449.658 155.016 450.229 154.353 449.416C152.994 447.756 153.383 444.966 151.455 443.814C148.558 442.083 151.696 440.413 152.046 440.808C151.674 440.394 150.619 440.672 150.128 440.438C149.423 440.106 149.452 438.996 149.285 438.385C149.051 437.542 148.927 435.758 147.994 435.503C147.435 435.352 146.434 432.37 146.127 431.763C145.418 430.346 145.364 428.73 144.655 427.346C142.147 422.453 142.253 416.827 141.897 411.475C141.761 409.429 141.605 407.311 140.629 405.508C140.449 405.176 140.239 404.85 140.159 404.479C140.083 404.133 140.128 403.772 140.16 403.418C140.463 400.046 139.575 396.579 137.689 393.771C137.263 393.136 136.783 392.523 136.523 391.805C136.14 390.747 136.249 389.554 135.695 388.551C135.289 387.817 134.203 387.661 134.007 386.73C133.791 385.701 135.081 384.833 134.932 383.795C134.853 383.241 134.382 382.829 134.182 382.305C133.865 381.48 134.272 380.571 134.374 379.69C134.606 377.694 133.241 375.797 133.333 373.789C133.392 372.522 134.027 371.249 133.664 370.032C133.473 369.394 133.02 368.851 132.876 368.2C132.744 367.605 132.884 366.989 132.927 366.381C133.065 364.421 131.508 363.349 131.35 361.674C131.2 360.079 132.597 358.693 133.029 357.241C133.472 355.747 133.353 354.185 133.564 352.638C133.817 350.787 136.403 350.072 136.449 348.318C136.478 347.22 136.128 346.516 135.72 345.533C135.244 344.388 135.126 343.04 134.765 341.857C134.566 341.208 134.049 340.666 133.865 340.019C133.68 339.369 134.089 338.846 133.608 338.131C133.19 337.509 132.572 337.041 132.156 336.417C131.311 335.151 131.5 333.297 132.583 332.228C132.879 331.936 133.235 331.694 133.456 331.342C133.783 330.82 133.755 330.162 133.834 329.552C133.913 328.942 134.199 328.26 134.796 328.11C133.995 328.045 133.17 327.937 132.476 327.53C131.782 327.125 131.246 326.35 131.349 325.553C131.525 324.206 133.24 323.638 133.825 322.411C133.432 323.236 131.151 322.043 131.055 321.118C131.011 320.688 130.986 320.254 130.978 319.82H129.51C129.268 320.668 129.267 321.583 129.56 322.417C129.897 323.372 130.539 324.527 129.851 325.273C129.572 325.573 129.109 325.732 128.99 326.124C128.881 326.484 129.119 326.844 129.33 327.153C130.032 328.183 130.575 329.476 130.172 330.656C129.686 332.075 127.94 333.41 127.14 334.641C126.096 336.245 125.529 337.239 123.669 338.18C120.448 339.809 117.069 341.467 113.697 342.749C110.631 343.912 107.194 343.81 104.217 345.211C103.162 345.706 102.072 346.423 100.931 346.184C100.33 346.059 99.8195 345.681 99.2996 345.356C96.1255 343.367 93.3311 342.052 90.4908 339.55C86.8814 336.369 84.894 332.573 81.9287 328.894C79.5661 325.964 76.997 323.465 74.4351 320.712C72.1163 318.221 68.2422 315.142 67.8798 311.484C67.6199 308.741 69.3918 306.168 72.3254 306.228C74.316 306.275 74.3038 307.41 75.0914 308.898C75.6457 309.941 77.7262 308.544 78.3923 308.148C79.8893 307.262 81.1289 309.139 82.709 307.921C83.9047 307.001 85.8492 306.868 87.2345 306.057C88.9895 305.032 90.6836 305.918 92.3558 304.499C93.2616 303.73 96.8593 299.546 93.1629 301.189C92.51 301.479 91.9736 301.979 91.3533 302.333C90.1465 303.02 88.6194 303.117 87.3366 302.583C86.8821 302.395 86.3429 302.136 85.9369 302.415C85.5089 302.708 85.5882 303.354 85.3891 303.836C85.0318 304.696 83.8876 304.846 82.9564 304.796C78.5187 304.554 73.9026 302.81 70.1326 300.522C65.9738 297.998 65.1644 294.774 62.4284 291.063C61.6747 290.04 60.7191 289.186 59.7709 288.342C59.4875 288.088 59.1837 287.826 58.81 287.76C58.5571 287.714 58.2976 287.766 58.041 287.756C57.1777 287.725 56.4946 287.047 55.9064 286.414C55.7013 286.193 55.4895 285.962 55.4068 285.672C55.2367 285.077 55.6538 284.492 55.9946 283.976C58.1741 280.669 56.3659 274.325 62.1673 277.261C63.0591 277.713 64.0931 277.761 65.0916 277.801C65.508 277.817 65.9487 277.828 66.3123 277.624C67.2323 277.11 67.0144 275.766 66.9094 274.715C66.7739 273.36 67.2221 271.761 68.4865 271.256C69.3819 270.9 70.3897 271.203 71.3041 271.507C72.7963 272.005 74.2886 272.503 75.7806 273.001C76.9095 273.377 78.1378 273.756 79.2646 273.373C79.9628 273.134 80.533 272.631 81.1754 272.268C84.0303 270.658 84.913 274.465 87.0697 275.323C88.4891 275.886 90.1442 275.828 91.6364 276.056C91.4906 275.142 91.5877 273.84 92.159 273.078C92.7665 272.264 94.2007 272.87 95.0514 272.764C97.3873 272.476 99.3047 270.82 101.682 270.7C103.306 270.614 103.531 274.019 103.461 275.086C107.209 275.585 108.138 269.793 107.692 267.176C107.198 264.277 105.672 261.678 104.426 259.014C103.181 256.349 102.182 253.371 102.833 250.503C100.061 250.829 97.1595 249.753 95.2717 247.698C93.3839 245.641 92.5576 242.657 93.1192 239.925C93.4991 238.073 94.4539 236.404 95.265 234.697C95.5716 234.052 95.844 233.235 95.4067 232.674C94.9876 232.13 94.1812 232.16 93.4967 232.17C89.4224 232.244 85.3593 229.519 84.1872 225.615C82.4781 219.923 86.7616 216.789 91.012 214.319C94.1452 212.495 95.2479 208.708 97.9135 206.359C100.509 204.075 103.943 202.714 107.411 202.731C107.691 202.731 107.99 202.748 108.215 202.916C108.708 203.279 108.526 204.038 108.364 204.629C107.974 206.06 108.013 207.603 108.476 209.014C108.572 209.306 108.701 209.612 108.959 209.78C109.509 210.143 110.208 209.689 110.743 209.306C114.011 206.974 118.358 206.937 122.353 207.337C123.584 207.462 125.324 207.63 126.367 206.793C127.494 205.889 127.006 204.7 127.67 203.655C129.154 201.316 132.042 200.157 133.553 197.577C134.554 195.867 135.188 193.951 136.281 192.298C137.375 190.649 139.119 189.221 141.099 189.274C141.648 189.291 142.204 189.419 142.741 189.305C143.433 189.154 143.973 188.629 144.458 188.115C148.616 183.707 151.755 178.341 153.562 172.559C153.924 171.397 154.258 170.177 155.074 169.276C156.328 167.892 158.352 167.627 160.15 167.129C161.948 166.632 163.918 165.466 164.011 163.605C164.05 162.829 163.742 162.076 163.716 161.3C163.605 158.105 167.743 156.727 169.591 154.117C171.077 152.02 171.663 148.556 174.229 148.412C173.854 146.755 173.744 146.211 174.236 144.773C174.534 143.903 175.571 143.671 175.518 142.535C175.46 141.285 175.134 139.095 174.403 138.066C173.063 136.249 173.126 136.229 174.487 134.606C175.956 132.852 176.766 132.573 178.537 131.474C179.821 130.675 180.809 128.954 182.324 128.598C183.453 128.329 184.622 129.012 185.771 128.85C186.831 128.702 187.726 127.758 187.819 126.693C187.911 125.625 187.193 124.543 186.174 124.214C185.907 124.126 185.625 124.089 185.349 124.032C185.155 123.995 184.964 123.948 184.782 123.868C184.472 123.737 184.205 123.521 183.91 123.357C182.845 122.762 181.546 122.866 180.332 122.742C179.394 122.645 178.445 122.389 177.706 121.801C176.967 121.217 176.476 120.259 176.638 119.328C176.783 118.495 177.334 117.44 176.636 116.96C176.465 116.845 176.252 116.805 176.046 116.788C174.781 116.684 173.441 117.289 172.277 116.782C170.14 115.847 169.451 113.627 166.954 112.814C164.744 112.095 160.55 111.795 159.432 109.302C158.454 107.122 160.098 102.408 160.7 100.221C160.8 99.8578 160.905 99.4849 160.862 99.1119C160.819 98.7457 160.637 98.4097 160.515 98.0636C160.023 96.6558 160.509 94.9725 159.741 93.6958C159.194 92.7852 158.038 92.0931 158.147 91.0381C158.262 89.9159 159.794 89.3044 159.809 88.1755C159.818 87.5472 159.338 87.0331 158.987 86.5123C158.175 85.2994 157.981 83.7908 157.809 82.3427C157.393 78.8383 161.328 79.5338 162.514 76.9433C163.506 74.7527 166.467 76.0228 167.672 74.3092C168.372 73.3113 168.275 72.8544 169.485 72.2294C171.336 71.2752 169.54 69.9817 168.355 69.8473C166.661 69.6591 165.22 68.4261 164.379 66.941C163.538 65.4593 163.21 63.7457 162.974 62.059C162.073 62.1396 161.708 63.5038 160.806 63.5609C160.297 63.5945 159.878 63.1813 159.554 62.7881C158.393 61.3804 157.461 59.7844 156.201 58.4606C154.941 57.1402 153.232 56.0818 151.41 56.186C149.712 56.28 147.671 57.2477 146.542 55.9743C145.506 54.8051 146.468 53.0948 145.583 51.8181C145.102 51.1226 144.373 48.0214 145.45 47.5914C146.99 46.9731 147.33 47.2957 148.612 46.0122C149.846 44.7758 151.936 46.0593 151.339 43.7712C151.067 42.7498 152.061 41.7822 153.035 41.8527C155.49 42.0308 153.832 36.8531 156.557 37.7133C158.48 38.3181 160.2 36.4937 162.165 37.2261C163.266 37.636 164.06 38.429 165.324 38.0594C167.407 37.4546 165.477 34.5786 167.526 34.7802C168.622 34.8843 170.467 36.6213 171.308 35.1631C171.765 34.3668 173.943 33.8696 174.818 33.2514C176.646 31.9612 176.413 33.4564 178.116 33.7554C179.827 34.0544 180.247 30.7113 182.128 32.0519C182.87 32.5794 183.391 33.5034 184.288 33.6714C184.684 33.7453 185.091 33.6545 185.484 33.5638C187.031 33.201 188.578 32.8415 190.125 32.4819C190.405 32.4147 190.694 32.351 190.977 32.3979C191.482 32.4887 191.851 32.912 192.175 33.3118C194.731 36.45 197.288 39.5915 199.844 42.733C200.386 43.3983 200.932 44.0703 201.599 44.6078C203.098 45.8207 205.057 46.2676 206.805 47.0807C209.678 48.4179 212.055 50.8706 213.106 53.8609C213.521 55.0469 213.788 56.3876 214.759 57.1838C216.954 58.978 220.823 56.5858 222.895 58.5211C224.484 60.0062 224.08 63.3425 226.187 63.8734C226.687 64.001 227.212 63.9103 227.719 63.8163C230.939 63.2317 234.467 62.4656 236.438 59.8516C236.848 59.3073 237.185 58.6857 237.721 58.2624C239.651 56.7437 242.84 58.5782 244.825 57.1301C245.27 56.8042 245.611 56.3372 246.101 56.0851C247.445 55.393 249.025 56.6362 250.525 56.4716C251.666 56.3472 252.54 55.4535 253.453 54.758C254.366 54.0625 255.675 53.5451 256.614 54.2036C257.082 54.5295 257.336 55.0772 257.7 55.5174C258.96 57.0428 261.232 57.0596 263.122 57.6375C265.078 58.2389 266.742 59.519 268.357 60.7722C269.374 61.5618 270.432 62.4052 270.929 63.5912C272.083 66.3328 269.963 69.1854 268.815 71.5608C267.916 73.4155 267.953 78.9962 266.08 79.7993C265.506 80.0479 264.852 79.9572 264.228 79.9874C263.603 80.0177 262.898 80.2495 262.672 80.8341C262.42 81.4859 262.899 82.2385 262.688 82.9038C262.331 84.026 260.659 83.774 259.629 84.3452C257.91 85.3028 258.603 88.0209 257.565 89.6908C257.114 90.4199 256.335 90.9272 256.007 91.7168C255.896 91.9822 255.841 92.2745 255.688 92.5164C255.372 93.017 254.703 93.2018 254.118 93.1111C251.994 92.7785 249.14 89.6706 247.282 92.0326C246.535 92.9868 246.529 93.5009 247.319 94.2905C248.141 95.1136 249.125 93.7562 249.479 95.0767C249.559 95.3824 250.481 96.9044 250.33 97.19C249.845 98.1207 248.591 98.4466 248.092 99.4714C247.702 100.281 247.687 101.262 247.599 102.136C247.352 104.595 247.556 105.069 249.774 104.965C252.186 104.861 256.893 106.023 255.07 109.047C252.985 112.508 257.008 113.254 258.362 115.767C259.742 118.327 258.872 119.758 256.548 121.028C255.712 121.482 253.112 120.948 252.795 121.939C252.439 123.078 250.336 122.557 250.19 123.686C249.956 125.494 251.183 125.635 248.866 126.518C247.368 127.1 245.664 125.252 245.188 124.009C244.371 121.882 245.062 121.112 243.044 120.02C241.307 119.09 240.937 121.351 240.993 122.608C241.055 123.948 240.838 125.369 240.988 126.68C241.037 127.096 243.813 127.399 243.575 127.859C243.128 128.736 242.632 128.534 243.394 129.855C243.793 130.547 245.106 131.212 245.208 131.972C245.489 134.014 243.824 136.051 245.738 137.838C247.72 139.689 244.276 140.435 244.411 141.987C244.473 142.717 245.35 142.999 245.479 143.775C245.634 144.712 245.917 145.616 246.934 145.949C246.704 145.875 248.205 141.621 250.314 142.155C252.961 142.827 253.732 145.687 253.963 147.981C254.191 150.28 256.566 150.646 258.444 150.8C259.436 150.884 260.457 150.901 261.423 151.157C262.621 151.469 263.073 152.994 264.389 152.756C266.749 152.333 268.722 155.44 269.061 157.312C269.212 158.142 269.358 160.08 270.594 159.442C272.18 158.619 271.744 160.309 273.305 160.463C275.031 160.631 275.622 159.486 276.912 161.109C277.846 162.295 277.855 163.702 279.353 164.455C282.852 166.209 274.573 172.068 273.604 173.134C272.579 174.256 271.91 175.65 271.256 177.021C270.878 177.811 270.503 178.597 270.126 179.386C269.81 180.045 269.489 180.73 269.453 181.459C269.394 182.608 270.043 183.794 269.633 184.87C269.334 185.652 268.532 186.183 268.336 186.993C268.129 187.843 268.598 188.928 267.947 189.516C267.617 189.812 267.121 189.832 266.748 190.071C266.017 190.531 266.026 191.673 266.538 192.369C267.369 193.498 269.355 194.953 270.691 195.339C273.347 196.105 272.39 194.476 274.69 193.935C275.399 195.998 277.177 197.664 279.282 198.239C280.85 198.669 282.6 198.541 283.991 199.381C285.918 200.547 286.692 203.319 288.863 203.92C288.643 203.332 289.268 202.62 289.879 202.764C289.893 204.562 291.057 206.299 292.712 206.998C293.419 207.297 294.223 207.431 294.804 207.932C295.306 208.365 295.601 209.041 296.199 209.33C296.835 209.635 297.581 209.397 298.272 209.252C300.809 208.728 303.598 209.676 305.286 211.641C305.636 212.051 305.975 212.518 306.486 212.683C307.051 212.861 307.654 212.612 308.198 212.374C309.187 211.94 310.239 211.527 311.315 211.621C314.328 211.883 312.642 214.383 313.89 215.774C314.939 216.94 319.757 217.084 321.317 217.407C321.685 216.261 322.708 215.351 323.889 215.119C325.069 214.887 326.359 215.344 327.134 216.264C328.47 215.384 329.836 214.497 331.371 214.05C332.862 213.617 334.681 213.607 335.995 214.537C336.774 215.085 336.608 216.432 337.806 216.55C339.818 216.752 341.03 215.653 342.253 217.518C343.464 219.369 343.304 220.511 343.613 222.551C343.874 224.254 348.392 224.352 349.593 224.95C351.64 225.964 353.2 228.014 355.716 226.435C356.224 226.116 356.695 225.665 357.293 225.598C359.28 225.373 359.759 229.18 361.757 229.106C362.326 229.089 362.838 228.72 363.407 228.699C364.619 228.652 365.536 230.141 366.737 229.969C367.396 229.879 367.913 229.294 368.575 229.244C369.541 229.166 370.168 230.181 370.815 230.903C372.204 232.449 374.649 232.926 376.516 232.016C377.416 231.575 378.206 230.846 379.197 230.699C380.889 230.447 382.278 231.935 383.84 232.637C386.6 233.874 389.522 232.573 392.305 232.17C394.34 231.874 395.61 232.694 396.742 230.803C397.87 228.914 396.99 225.447 395.976 223.744C395.244 222.507 394.172 221.422 393.836 220.024C393.558 218.841 393.85 217.605 394.142 216.426C394.747 213.99 395.365 211.52 396.627 209.353C396.983 208.748 397.4 208.097 397.279 207.408C397.158 206.719 396.537 206.239 396.231 205.607C395.032 203.144 397.87 202.734 399.499 202.643C401.343 202.539 401.444 202.892 402.72 201.424C404.809 198.991 406.874 199.109 408.691 201.975C409.847 203.806 409.887 205.009 409.366 207.028C409.004 208.436 407.795 210.126 408.903 211.52C409.393 212.132 410.27 212.454 410.495 213.204C410.69 213.849 410.303 214.507 410.102 215.149C409.091 218.381 412.638 221.066 415.654 222.601C418.478 220.958 422.475 221.791 424.413 224.422C426.364 222.84 428.621 221.637 431.026 220.901C431.986 220.609 432.984 220.384 433.988 220.404C435.211 220.431 436.396 220.81 437.592 221.059C442.811 222.138 448.188 220.706 453.317 219.261C456.739 218.297 460.9 216.372 460.769 212.814C460.736 211.92 460.38 211.016 459.691 210.438C458.465 209.404 456.645 209.659 455.08 209.299C451.809 208.55 449.777 204.485 451.137 201.417C451.322 201 451.614 200.567 452.06 200.5C452.786 200.389 453.229 201.239 453.763 201.74C455.704 203.564 458.519 200.752 461.129 200.218C463.53 199.724 466.835 200.974 467.967 198.8C468.356 198.054 468.269 197.167 468.329 196.33C468.541 193.562 470.711 191.059 473.421 190.457C474.637 190.188 476.198 190.074 476.625 188.902C476.907 188.129 476.504 187.289 476.477 186.466C476.417 184.614 478.271 183.247 480.071 182.813C481.871 182.383 483.792 182.524 485.539 181.916C491.624 179.796 492.451 170.147 498.63 168.322C501.875 170.577 505.71 171.968 509.643 172.314C510.301 172.371 511.013 172.391 511.568 172.028C512.327 171.534 512.518 170.526 512.803 169.663C513.908 166.32 517.563 164.025 521.052 164.485C523.615 164.821 526.184 167.67 524.726 169.811C523.914 171.01 522.033 172.314 523.044 173.352C523.165 173.923 524.105 173.725 524.377 173.207C524.649 172.693 524.616 172.038 524.968 171.571C525.929 170.305 527.813 171.867 528.552 173.275C529.314 174.736 530.097 176.413 529.543 177.965C528.767 180.149 525.593 181.268 525.774 183.579C527.769 182.027 530.6 182.39 533.089 182.827C536.364 183.405 539.638 183.979 542.916 184.557C541.398 185.535 543.245 187.709 543.578 189.483C544.35 193.636 536.109 195.47 537.22 199.542ZM131.155 331.801C131.277 331.573 131.383 331.34 131.465 331.099C131.739 330.3 131.746 329.43 131.493 328.522C131.588 328.59 131.685 328.652 131.787 328.712C132.029 328.852 132.278 328.967 132.531 329.06C132.51 329.164 132.492 329.268 132.478 329.376C132.457 329.536 132.443 329.7 132.428 329.865C132.402 330.16 132.373 330.494 132.298 330.614C132.251 330.689 132.1 330.822 131.967 330.939C131.862 331.031 131.742 331.136 131.622 331.254C131.45 331.424 131.295 331.608 131.155 331.801ZM543.769 186.046C543.726 185.901 543.696 185.773 543.692 185.683L543.769 185.632V183.317L533.328 181.48C531.894 181.228 530.359 181.009 528.878 181.11C529.64 180.378 530.433 179.538 530.832 178.425C531.561 176.372 530.664 174.363 529.761 172.64C529.109 171.393 527.759 169.999 526.281 169.77C526.644 168.816 526.594 167.758 526.127 166.716C525.304 164.875 523.289 163.4 521.23 163.128C517.089 162.58 512.814 165.265 511.507 169.236C511.46 169.381 511.413 169.532 511.366 169.683C511.215 170.177 511.044 170.738 510.822 170.882C510.6 171.027 509.992 170.973 509.764 170.953C506.049 170.624 502.473 169.327 499.409 167.2L498.872 166.827L498.244 167.012C494.597 168.087 492.669 171.309 490.805 174.427C489.169 177.159 487.621 179.742 485.089 180.626C484.252 180.915 483.312 181.009 482.314 181.11C481.481 181.191 480.622 181.275 479.752 181.486C477.455 182.034 475.023 183.842 475.11 186.509C475.124 186.912 475.194 187.285 475.258 187.611C475.318 187.917 475.392 188.293 475.342 188.431C475.241 188.707 474.287 188.891 473.716 189.002C473.515 189.043 473.317 189.08 473.122 189.123C469.814 189.856 467.224 192.843 466.969 196.226C466.949 196.458 466.942 196.683 466.936 196.901C466.922 197.405 466.905 197.879 466.754 198.165C466.438 198.773 465.569 198.81 463.802 198.749C462.831 198.716 461.827 198.679 460.853 198.877C459.795 199.095 458.798 199.583 457.834 200.056C456.104 200.9 455.231 201.242 454.7 200.742C454.613 200.661 454.505 200.537 454.391 200.406C453.924 199.861 453.139 198.951 451.856 199.146C451.264 199.237 450.445 199.606 449.887 200.863C449.071 202.697 449.165 204.878 450.149 206.84C451.13 208.802 452.816 210.183 454.774 210.633C455.362 210.768 455.946 210.825 456.507 210.882C457.471 210.976 458.304 211.057 458.811 211.483C459.164 211.779 459.382 212.296 459.406 212.864C459.506 215.673 455.402 217.252 452.947 217.944C448.484 219.201 442.932 220.763 437.87 219.718C437.565 219.655 437.259 219.584 436.937 219.507C436.01 219.285 435.053 219.06 434.015 219.036C432.692 219.013 431.446 219.342 430.623 219.594C428.487 220.249 426.421 221.271 424.587 222.571C422.246 220.384 418.612 219.742 415.67 221.059C413.947 220.098 410.669 217.914 411.408 215.559C411.442 215.441 411.492 215.31 411.546 215.172C411.774 214.571 412.083 213.748 411.805 212.814C411.543 211.937 410.901 211.433 410.431 211.067C410.25 210.926 410.062 210.778 409.974 210.667C409.685 210.304 409.796 209.817 410.26 208.627C410.418 208.221 410.579 207.801 410.693 207.371C411.261 205.167 411.294 203.537 409.847 201.242C408.695 199.428 407.365 198.454 405.884 198.346C404.436 198.239 403.019 198.974 401.685 200.527C401.205 201.081 401.037 201.195 400.987 201.219C400.933 201.246 400.621 201.246 400.392 201.249C400.137 201.252 399.818 201.256 399.422 201.276C397.927 201.36 395.835 201.649 394.945 203.168C394.589 203.769 394.31 204.787 395.002 206.208C395.18 206.575 395.401 206.867 395.6 207.129C395.724 207.297 395.915 207.549 395.932 207.643C395.959 207.794 395.67 208.285 395.516 208.55L395.448 208.664C394.075 211.016 393.433 213.597 392.815 216.096C392.516 217.303 392.144 218.808 392.51 220.34C392.795 221.553 393.487 222.527 394.095 223.387C394.354 223.754 394.599 224.096 394.8 224.442C395.737 226.018 396.291 228.898 395.569 230.1C395.176 230.756 395.012 230.752 393.94 230.736C393.44 230.725 392.815 230.715 392.11 230.819C391.341 230.93 390.579 231.102 389.84 231.266C387.884 231.706 386.037 232.123 384.398 231.391C383.992 231.206 383.569 230.937 383.12 230.655C381.963 229.926 380.65 229.099 378.995 229.344C378.058 229.486 377.323 229.943 376.676 230.342C376.408 230.51 376.157 230.668 375.916 230.786C374.604 231.428 372.81 231.078 371.833 229.99C371.731 229.875 371.629 229.754 371.524 229.63C370.905 228.884 369.969 227.762 368.467 227.88C367.828 227.93 367.325 228.209 366.956 228.414C366.821 228.488 366.617 228.602 366.546 228.615C366.544 228.615 366.541 228.615 366.537 228.615C366.409 228.615 365.981 228.337 365.771 228.202C365.15 227.796 364.371 227.295 363.354 227.332C362.86 227.352 362.452 227.497 362.124 227.614C361.978 227.668 361.781 227.738 361.708 227.742C361.706 227.742 361.706 227.742 361.704 227.742C361.471 227.742 360.953 226.972 360.673 226.559C359.993 225.555 358.966 224.033 357.14 224.241C356.343 224.328 355.743 224.752 355.306 225.061C355.2 225.135 355.096 225.212 354.989 225.276C353.915 225.951 353.321 225.679 351.762 224.657C351.274 224.338 350.768 224.006 350.2 223.723C349.651 223.451 348.894 223.303 347.936 223.119C347.157 222.971 345.375 222.625 344.95 222.242C344.893 221.852 344.853 221.496 344.815 221.15C344.66 219.776 344.516 218.479 343.397 216.768C342.099 214.789 340.513 214.984 339.353 215.125C338.909 215.179 338.486 215.233 338.019 215.196C337.973 215.112 337.915 214.984 337.873 214.894C337.674 214.453 337.401 213.855 336.785 213.419C335.296 212.367 333.128 212.115 330.988 212.74C329.601 213.143 328.343 213.859 327.26 214.551C326.214 213.829 324.885 213.533 323.625 213.778C322.349 214.03 321.223 214.823 320.528 215.905C320.242 215.868 319.934 215.834 319.605 215.797C318.366 215.66 315.473 215.337 314.899 214.85C314.744 214.665 314.713 214.235 314.682 213.785C314.609 212.727 314.457 210.522 311.435 210.257C310.046 210.136 308.803 210.616 307.651 211.12C307.472 211.198 307.068 211.376 306.907 211.376C306.903 211.376 306.902 211.376 306.898 211.376C306.801 211.319 306.602 211.083 306.469 210.922C306.42 210.865 306.373 210.808 306.324 210.751C304.3 208.399 301.031 207.283 297.993 207.915C297.893 207.935 297.79 207.959 297.686 207.982C297.415 208.043 296.914 208.154 296.791 208.097C296.713 208.06 296.527 207.824 296.405 207.67C296.212 207.428 295.993 207.152 295.698 206.897C295.093 206.373 294.385 206.134 293.818 205.946C293.61 205.876 293.414 205.809 293.242 205.738C292.096 205.254 291.257 203.997 291.246 202.751L291.239 201.676L290.192 201.431C289.502 201.269 288.77 201.474 288.226 201.968C287.87 201.622 287.529 201.175 287.161 200.691C286.506 199.831 285.764 198.857 284.698 198.212C283.571 197.53 282.323 197.358 281.224 197.204C280.658 197.127 280.126 197.053 279.643 196.922C277.981 196.468 276.544 195.121 275.983 193.488L275.582 192.319L274.378 192.601C272.997 192.927 272.37 193.605 271.996 194.012C271.947 194.066 271.887 194.13 271.843 194.173C271.761 194.177 271.533 194.156 271.07 194.025C270.052 193.73 268.323 192.487 267.639 191.556C267.559 191.448 267.533 191.29 267.542 191.2C267.593 191.18 267.661 191.156 267.716 191.139C268.031 191.035 268.465 190.891 268.862 190.531C269.752 189.731 269.695 188.656 269.659 187.947C269.648 187.712 269.633 187.443 269.664 187.316C269.701 187.171 269.894 186.926 270.082 186.691C270.355 186.345 270.698 185.915 270.91 185.357C271.294 184.352 271.104 183.378 270.953 182.595C270.877 182.199 270.804 181.826 270.818 181.53C270.842 181.06 271.106 180.509 271.36 179.974L272.488 177.612C273.093 176.346 273.719 175.039 274.614 174.054C274.734 173.923 275.235 173.503 275.676 173.13C278.936 170.399 281.838 167.748 281.559 165.362C281.451 164.452 280.886 163.692 279.966 163.232C279.457 162.977 279.268 162.61 278.917 161.865C278.684 161.374 278.422 160.816 277.982 160.255C276.717 158.666 275.561 158.763 274.484 158.995C274.13 159.072 273.826 159.14 273.438 159.099C273.316 159.089 273.316 159.089 273.119 158.844C272.809 158.458 272.041 157.507 270.563 157.977C270.519 157.762 270.483 157.534 270.461 157.399C270.443 157.278 270.425 157.167 270.406 157.067C269.978 154.711 267.519 150.807 264.148 151.412C264.134 151.415 264.126 151.415 264.124 151.415C264.024 151.382 263.776 151.146 263.61 150.992C263.191 150.595 262.617 150.055 261.768 149.833C260.889 149.601 260.025 149.544 259.188 149.483C258.977 149.47 258.767 149.456 258.557 149.44C255.963 149.225 255.407 148.69 255.323 147.844C254.826 142.901 252.507 141.302 250.651 140.832C248.857 140.375 247.514 141.628 246.661 142.975C246.459 142.501 246.149 142.172 245.92 141.934C245.901 141.91 245.878 141.887 245.855 141.86C245.983 141.712 246.194 141.514 246.334 141.379C246.921 140.828 247.723 140.072 247.722 138.937C247.72 138.194 247.366 137.489 246.672 136.84C246.048 136.259 246.085 135.768 246.358 134.408C246.515 133.628 246.694 132.741 246.562 131.79C246.435 130.836 245.702 130.198 245.115 129.684C244.927 129.519 244.645 129.274 244.577 129.169C244.539 129.102 244.508 129.045 244.48 128.995C244.575 128.86 244.685 128.692 244.789 128.487C244.997 128.084 245.011 127.621 244.831 127.207C244.482 126.408 243.66 126.182 242.617 125.897C242.528 125.873 242.415 125.843 242.302 125.81C242.295 125.373 242.315 124.912 242.335 124.435C242.362 123.82 242.39 123.185 242.358 122.547C242.337 122.043 242.409 121.566 242.497 121.28C243.204 121.674 243.232 121.805 243.388 122.601C243.487 123.095 243.609 123.713 243.912 124.499C244.329 125.588 245.432 127.046 246.865 127.684C247.714 128.057 248.577 128.098 249.351 127.795C251.061 127.147 251.925 126.468 251.597 124.748C251.563 124.566 251.53 124.402 251.526 124.204C251.612 124.18 251.703 124.156 251.777 124.136C252.423 123.968 253.462 123.696 253.956 122.708C254.237 122.658 254.718 122.638 255.032 122.624C255.834 122.594 256.592 122.561 257.203 122.228C258.387 121.583 261.992 119.614 259.565 115.118C258.986 114.043 258.089 113.281 257.299 112.609C255.739 111.285 255.518 110.952 256.242 109.756C257.243 108.093 256.78 106.813 256.413 106.198C255.044 103.89 251.114 103.537 249.711 103.597C249.291 103.618 249.038 103.607 248.888 103.594C248.876 103.379 248.888 102.986 248.959 102.27C248.976 102.112 248.989 101.951 249.003 101.79C249.056 101.158 249.111 100.51 249.322 100.069C249.435 99.8376 249.732 99.6159 250.079 99.3572C250.562 98.9977 251.163 98.5474 251.539 97.8284C251.973 97.012 251.539 96.1586 250.988 95.08C250.917 94.9389 250.821 94.7474 250.782 94.6634C250.571 93.9343 249.962 92.839 248.214 93.1716C248.196 93.175 248.175 93.1817 248.156 93.1851C248.154 93.1817 248.15 93.1783 248.148 93.175C248.188 93.1078 248.254 93.0103 248.358 92.8793C248.784 92.3384 249.213 92.3383 251.234 93.3967C252.099 93.8503 252.992 94.3173 253.907 94.4618C255.11 94.65 256.262 94.1729 256.846 93.2455C257.031 92.9465 257.13 92.6542 257.201 92.4391C257.223 92.3719 257.243 92.3048 257.268 92.2409C257.363 92.0158 257.607 91.7537 257.868 91.4749C258.147 91.1758 258.462 90.8365 258.727 90.4131C259.303 89.4858 259.465 88.4241 259.609 87.4867C259.771 86.4216 259.899 85.7597 260.292 85.5413C260.491 85.4304 260.858 85.3531 261.211 85.2792C262.132 85.0844 263.523 84.7853 263.99 83.3204C264.195 82.6753 264.092 82.0873 264.017 81.6539C264.004 81.58 263.986 81.4859 263.975 81.4053C264.051 81.3818 264.161 81.3616 264.296 81.3549C264.425 81.3482 264.569 81.3482 264.722 81.3482C265.264 81.3482 265.937 81.3482 266.62 81.0558C268.489 80.2562 268.957 77.5381 269.413 74.9106C269.602 73.8052 269.801 72.6628 270.045 72.1555C270.24 71.7523 270.472 71.3223 270.714 70.872C271.905 68.6613 273.387 65.9095 272.191 63.0603C271.54 61.5148 270.24 60.5034 269.196 59.6937C267.577 58.4371 265.743 57.0125 263.521 56.3304C262.952 56.1557 262.373 56.0314 261.811 55.9138C260.5 55.6316 259.368 55.3896 258.754 54.6472C258.67 54.5463 258.581 54.4153 258.486 54.2775C258.231 53.9046 257.912 53.4443 257.4 53.0814C256.114 52.1844 254.286 52.4061 252.625 53.6694C252.439 53.8105 252.253 53.9617 252.068 54.1096C251.468 54.5967 250.899 55.0571 250.379 55.1142C250.004 55.1511 249.497 55.01 248.963 54.8588C247.966 54.5766 246.726 54.2238 245.476 54.8689C245.009 55.1074 244.665 55.4333 244.388 55.6988C244.254 55.8265 244.127 55.9474 244.019 56.0247C243.439 56.4481 242.442 56.3809 241.387 56.3069C239.923 56.2095 238.264 56.0953 236.875 57.1906C236.323 57.624 235.959 58.1515 235.638 58.6152C235.542 58.7563 235.446 58.894 235.345 59.0284C233.721 61.1855 230.695 61.8877 227.475 62.4724C227.132 62.5328 226.743 62.6033 226.522 62.5496C226.091 62.4387 225.85 61.7735 225.503 60.6849C225.162 59.6164 224.775 58.4069 223.829 57.5232C222.33 56.1221 220.308 56.3002 218.683 56.4447C217.444 56.5522 216.274 56.6564 215.625 56.1255C215.146 55.7324 214.895 54.9462 214.629 54.1163C214.552 53.8777 214.477 53.6392 214.395 53.4073C213.247 50.1382 210.691 47.3797 207.382 45.8409C206.776 45.5587 206.158 45.3235 205.562 45.095C204.402 44.6515 203.307 44.2315 202.459 43.5461C201.9 43.0925 201.417 42.4978 200.905 41.8695L193.235 32.445C192.889 32.0217 192.246 31.2321 191.211 31.0507C190.65 30.9532 190.147 31.0708 189.815 31.1481L185.174 32.23C184.97 32.277 184.661 32.351 184.54 32.3274C184.377 32.2972 184.072 31.988 183.826 31.7428C183.569 31.4841 183.278 31.1918 182.921 30.9364C180.861 29.4681 179.446 31.1212 178.841 31.8301C178.686 32.0116 178.436 32.3039 178.297 32.3979C178.02 32.3375 177.871 32.2199 177.632 32.0351C176.647 31.2623 175.657 30.9835 174.029 32.1326C173.81 32.2871 173.294 32.5021 172.838 32.687C171.808 33.1103 170.745 33.5471 170.205 34.3501C169.965 34.2829 169.58 34.1014 169.33 33.9838C168.796 33.7352 168.243 33.4731 167.659 33.4194C166.923 33.3455 166.316 33.5135 165.856 33.9133C165.139 34.5349 165.101 35.4152 165.072 36.0569C165.063 36.2618 165.048 36.5978 165.002 36.7255C164.988 36.7322 164.968 36.739 164.941 36.749C164.579 36.8531 164.328 36.7524 163.648 36.403C163.354 36.2551 163.021 36.0871 162.643 35.9426C161.193 35.4051 159.899 35.8116 158.859 36.1409C158.011 36.4097 157.466 36.5642 156.968 36.4063C156.147 36.1476 155.42 36.2047 154.804 36.5676C153.766 37.1824 153.523 38.4088 153.328 39.3932C153.262 39.7225 153.159 40.2433 153.049 40.4852C152.138 40.4482 151.206 40.8749 150.597 41.6108C150.022 42.3029 149.804 43.1731 149.989 44.0063C149.345 44.1005 148.422 44.2651 147.644 45.0446C147.014 45.6763 146.833 45.7266 146.233 45.8947C145.901 45.9887 145.488 46.103 144.943 46.3214C144.339 46.5632 143.891 47.084 143.679 47.7863C143.238 49.2512 143.848 51.714 144.459 52.5976C144.628 52.8395 144.64 53.2327 144.639 53.8475C144.638 54.7076 144.636 55.887 145.52 56.8815C146.846 58.3766 148.774 58.0137 150.182 57.745C150.653 57.6576 151.1 57.5703 151.486 57.5501C152.668 57.4829 154.024 58.1616 155.211 59.4047C155.89 60.117 156.475 60.9301 157.094 61.7936C157.537 62.4085 157.995 63.0469 158.499 63.6584C158.774 63.9944 159.616 65.0124 160.895 64.925C161.35 64.8982 161.723 64.7436 162.032 64.542C162.281 65.597 162.636 66.6419 163.19 67.6163C164.339 69.6423 166.213 70.9863 168.204 71.208C168.274 71.2148 168.35 71.2349 168.426 71.2585C167.616 71.7591 167.289 72.263 166.938 72.8913C166.824 73.0963 166.716 73.2912 166.554 73.5196C166.336 73.8321 165.827 73.9295 165.013 74.0606C163.854 74.2521 162.102 74.5377 161.271 76.3755C160.968 77.0341 160.266 77.3969 159.454 77.8136C158.118 78.499 156.099 79.5338 156.451 82.504C156.624 83.9554 156.838 85.7631 157.852 87.2716C157.928 87.3859 158.009 87.5001 158.091 87.6143C158.214 87.7823 158.395 88.0343 158.437 88.1553C158.379 88.283 158.139 88.5417 157.977 88.7164C157.518 89.217 156.889 89.8991 156.787 90.897C156.652 92.2006 157.453 93.0943 158.038 93.7428C158.251 93.9813 158.453 94.2065 158.569 94.3979C158.821 94.8179 158.847 95.4463 158.878 96.172C158.908 96.891 158.942 97.7075 159.224 98.5138C159.269 98.6415 159.32 98.7692 159.371 98.8935C159.426 99.0279 159.496 99.1992 159.504 99.2698C159.516 99.3706 159.442 99.6394 159.388 99.8343L159.382 99.8578C159.3 100.153 159.2 100.496 159.089 100.872C158.06 104.373 157.216 107.7 158.184 109.86C159.32 112.394 162.383 113.106 164.843 113.68C165.475 113.828 166.073 113.966 166.53 114.114C167.557 114.45 168.203 115.118 168.95 115.891C169.677 116.644 170.501 117.497 171.73 118.035C172.789 118.495 173.862 118.354 174.724 118.236C175.004 118.199 175.274 118.162 175.522 118.149C175.504 118.216 175.487 118.283 175.471 118.341C175.405 118.582 175.337 118.831 175.291 119.096C175.055 120.454 175.67 121.936 176.857 122.876C177.71 123.552 178.832 123.962 180.192 124.103C180.526 124.136 180.853 124.156 181.171 124.173C181.966 124.217 182.718 124.257 183.243 124.55C183.316 124.593 183.403 124.647 183.495 124.708C183.696 124.839 183.946 125 184.246 125.128C184.556 125.259 184.855 125.329 185.08 125.373C185.159 125.39 185.238 125.403 185.316 125.42C185.483 125.45 185.64 125.477 185.754 125.514C186.166 125.648 186.494 126.142 186.456 126.576C186.419 127.006 186.01 127.436 185.582 127.496C185.272 127.54 184.854 127.456 184.412 127.365C183.703 127.221 182.899 127.056 182.01 127.268C180.714 127.574 179.802 128.477 178.998 129.277C178.582 129.69 178.188 130.08 177.816 130.312C177.493 130.51 177.204 130.685 176.936 130.843C175.686 131.585 174.783 132.123 173.44 133.725L173.376 133.803C172.596 134.733 172.081 135.345 172.065 136.259C172.049 137.173 172.571 137.885 173.295 138.869C173.753 139.521 174.09 141.275 174.152 142.599C174.154 142.629 174.151 142.646 174.152 142.646C174.126 142.703 173.974 142.858 173.873 142.958C173.574 143.264 173.165 143.681 172.942 144.333C172.502 145.619 172.461 146.396 172.632 147.434C171.076 148.196 170.243 149.92 169.544 151.368C169.192 152.097 168.861 152.783 168.476 153.327C167.904 154.133 167.017 154.842 166.078 155.595C164.286 157.023 162.256 158.646 162.349 161.347C162.365 161.807 162.449 162.227 162.524 162.6C162.593 162.95 162.659 163.276 162.646 163.534C162.59 164.646 161.07 165.456 159.786 165.812C159.479 165.896 159.165 165.974 158.833 166.054C157.209 166.457 155.369 166.914 154.061 168.356C153.102 169.414 152.696 170.731 152.336 171.89L152.256 172.149C150.514 177.73 147.474 182.924 143.464 187.175C143.136 187.524 142.76 187.9 142.453 187.967C142.291 188.001 142.028 187.978 141.749 187.951C141.564 187.934 141.355 187.914 141.137 187.907C138.931 187.847 136.689 189.207 135.141 191.546C134.476 192.55 133.979 193.615 133.499 194.647C133.131 195.436 132.784 196.182 132.373 196.885C131.706 198.024 130.675 198.874 129.583 199.774C128.481 200.681 127.341 201.622 126.516 202.922C126.093 203.588 125.983 204.243 125.894 204.767C125.791 205.378 125.743 205.54 125.511 205.728C124.899 206.218 123.39 206.067 122.489 205.976C118.638 205.59 113.732 205.496 109.949 208.194C109.855 208.261 109.775 208.315 109.706 208.359C109.394 207.27 109.385 206.081 109.683 204.989C109.851 204.377 110.294 202.754 109.029 201.817C108.425 201.367 107.745 201.363 107.418 201.363C107.395 201.363 107.372 201.363 107.348 201.363C103.644 201.363 99.879 202.808 97.0101 205.335C95.7305 206.46 94.8099 207.831 93.9202 209.155C92.8492 210.751 91.8382 212.256 90.3249 213.136C87.1989 214.951 80.6943 218.734 82.8777 226.008C84.1752 230.329 88.6526 233.541 93.3422 233.541C93.4013 233.541 93.4614 233.541 93.5205 233.538H93.5763C93.7671 233.534 94.0512 233.531 94.2443 233.551C94.2164 233.665 94.1567 233.843 94.0304 234.109C93.8745 234.435 93.7133 234.764 93.5521 235.09C92.8485 236.514 92.121 237.986 91.7801 239.649C91.1313 242.809 92.0834 246.248 94.2648 248.622C96.0563 250.574 98.6323 251.759 101.27 251.91C101.138 254.752 102.19 257.458 103.188 259.594C103.455 260.164 103.736 260.735 104.007 261.286C105.025 263.356 105.987 265.311 106.345 267.406C106.615 268.995 106.251 271.98 105.042 273.234C104.954 273.326 104.863 273.406 104.771 273.474C104.653 272.348 104.331 270.931 103.492 270.081C102.98 269.562 102.314 269.297 101.613 269.334C100.108 269.408 98.8449 269.961 97.6234 270.495C96.6796 270.906 95.7886 271.296 94.8845 271.407C94.773 271.42 94.4683 271.383 94.2463 271.356C93.3869 271.252 91.9481 271.077 91.0644 272.257C90.5815 272.903 90.3386 273.729 90.2506 274.529C89.2703 274.444 88.345 274.358 87.5746 274.051C87.0945 273.86 86.5833 273.276 86.0893 272.711C85.0407 271.513 83.2855 269.507 80.5038 271.077C80.2339 271.229 79.9923 271.391 79.7588 271.546C79.4243 271.77 79.1082 271.982 78.8247 272.077C78.1416 272.31 77.2379 272.046 76.2132 271.705L71.7367 270.211C70.7998 269.899 69.3842 269.427 67.9805 269.987C66.0421 270.758 65.3626 272.986 65.549 274.852L65.5739 275.091C65.6115 275.447 65.6868 276.16 65.6072 276.433C65.4854 276.448 65.2629 276.439 65.146 276.435C64.3007 276.4 63.4267 276.366 62.7846 276.041C61.5845 275.434 59.8125 274.712 58.2854 275.45C56.6716 276.231 56.2886 278.107 55.9184 279.92C55.6732 281.122 55.4196 282.364 54.8533 283.223L54.8025 283.299C54.4118 283.89 53.7577 284.877 54.0922 286.048C54.2667 286.658 54.6509 287.072 54.905 287.346C55.5046 287.992 56.5082 289.071 57.9926 289.124C58.1524 289.13 58.2968 289.122 58.4126 289.115C58.4567 289.113 58.5125 289.109 58.5518 289.109C58.6351 289.161 58.7851 289.294 58.8615 289.363C59.7437 290.149 60.656 290.962 61.328 291.874C62.117 292.944 62.7465 293.986 63.3551 294.993C64.8352 297.442 66.2332 299.754 69.4232 301.691C73.7854 304.339 78.5651 305.927 82.8821 306.161C82.9303 306.164 82.9781 306.166 83.0253 306.168C82.6223 306.347 82.234 306.562 81.875 306.837C81.6364 307.021 81.5345 307.036 80.7902 306.812C80.0439 306.587 78.9159 306.25 77.6952 306.972C77.6346 307.009 77.5633 307.052 77.4829 307.1C76.7856 307.527 76.3564 307.738 76.0925 307.835C76.0373 307.714 75.9846 307.596 75.9328 307.477C75.4576 306.398 74.8068 304.92 72.3533 304.86C70.7137 304.824 69.2057 305.451 68.1214 306.62C66.9244 307.909 66.3402 309.729 66.5193 311.619C66.861 315.067 69.7161 317.908 72.0101 320.193C72.5245 320.704 73.0103 321.188 73.4343 321.643C74.1812 322.446 74.9358 323.236 75.6654 323.998C77.494 325.909 79.2212 327.714 80.8644 329.753C81.8462 330.971 82.7389 332.232 83.6019 333.45C85.3148 335.87 87.0857 338.372 89.5873 340.575C91.7301 342.464 93.8137 343.686 96.0197 344.981C96.8465 345.466 97.7013 345.967 98.5738 346.515C98.6508 346.564 98.727 346.613 98.8039 346.662C99.2909 346.976 99.8975 347.366 100.651 347.523C102.065 347.818 103.298 347.198 104.288 346.7C104.46 346.615 104.63 346.527 104.799 346.449C106.255 345.763 107.874 345.47 109.589 345.159C111.101 344.886 112.665 344.603 114.182 344.027C117.734 342.678 121.26 340.932 124.286 339.4C126.37 338.346 127.139 337.157 128.114 335.653L128.286 335.387C128.535 335.004 128.944 334.559 129.378 334.086C129.86 333.561 130.381 332.994 130.803 332.376C130.037 333.864 130.078 335.766 131.019 337.177C131.293 337.588 131.612 337.923 131.893 338.22C132.118 338.458 132.329 338.68 132.474 338.893C132.48 338.902 132.484 338.91 132.486 338.911C132.489 338.957 132.479 339.072 132.471 339.16C132.446 339.451 132.407 339.891 132.55 340.394C132.693 340.894 132.932 341.297 133.144 341.651C133.28 341.879 133.408 342.096 133.458 342.256C133.588 342.683 133.686 343.152 133.79 343.65C133.956 344.443 134.127 345.263 134.457 346.059L134.578 346.345C134.904 347.12 135.101 347.587 135.082 348.283C135.074 348.593 134.594 349.035 134.13 349.461C133.36 350.171 132.401 351.053 132.209 352.454C132.124 353.078 132.089 353.685 132.055 354.274C132.003 355.193 131.953 356.061 131.718 356.851C131.599 357.252 131.343 357.712 131.072 358.199C130.502 359.224 129.856 360.383 129.989 361.804C130.086 362.825 130.526 363.626 130.915 364.33C131.347 365.114 131.61 365.628 131.563 366.286C131.553 366.427 131.537 366.569 131.521 366.711C131.465 367.211 131.395 367.835 131.541 368.495C131.658 369.024 131.881 369.45 132.078 369.826C132.194 370.047 132.304 370.256 132.354 370.424C132.483 370.857 132.36 371.435 132.217 372.102C132.112 372.591 131.994 373.147 131.968 373.725C131.913 374.925 132.257 376.04 132.561 377.021C132.84 377.923 133.104 378.777 133.016 379.533C132.993 379.729 132.945 379.953 132.893 380.19C132.734 380.921 132.537 381.833 132.905 382.794C133.04 383.15 133.229 383.436 133.38 383.668C133.443 383.764 133.536 383.907 133.572 383.981C133.538 384.107 133.384 384.37 133.28 384.548C132.93 385.149 132.451 385.971 132.669 387.012C132.893 388.074 133.642 388.595 134.138 388.94C134.266 389.029 134.46 389.164 134.498 389.213C134.7 389.578 134.774 390.06 134.861 390.616C134.94 391.123 135.029 391.696 135.238 392.27C135.508 393.018 135.937 393.638 136.316 394.185C136.396 394.299 136.476 394.416 136.553 394.533C138.253 397.064 139.071 400.258 138.798 403.296L138.789 403.387C138.754 403.77 138.709 404.248 138.823 404.771C138.932 405.274 139.157 405.676 139.338 406C139.368 406.053 139.398 406.106 139.427 406.159C140.278 407.733 140.407 409.68 140.533 411.566C140.587 412.372 140.631 413.206 140.674 414.012C140.922 418.707 141.179 423.564 143.438 427.97C143.724 428.528 143.892 429.19 144.069 429.89C144.274 430.7 144.486 431.538 144.907 432.377C144.961 432.485 145.102 432.842 145.227 433.156C146.119 435.408 146.6 436.43 147.46 436.765C147.603 437.028 147.736 437.686 147.803 438.018C147.855 438.279 147.905 438.525 147.967 438.747C147.988 438.826 148.013 438.977 148.037 439.123C148.139 439.752 148.3 440.737 149.051 441.363C148.97 441.563 148.913 441.775 148.887 441.999C148.793 442.798 149.041 443.963 150.753 444.986C151.364 445.353 151.602 446.091 151.938 447.268C152.219 448.247 152.536 449.358 153.294 450.282C153.788 450.886 154.369 451.101 154.774 451.22C154.772 451.269 154.769 451.316 154.767 451.36C154.708 452.449 154.627 453.939 155.831 454.475C156.179 454.63 156.57 454.695 156.983 454.767C157.142 454.794 157.384 454.836 157.583 454.881C157.571 454.932 157.557 454.985 157.543 455.042C157.388 455.66 157.129 456.694 158.033 457.863C158.138 458 158.242 458.133 158.346 458.266C159.429 459.656 160.302 460.776 160.667 462.468C160.518 462.778 160.384 463.099 160.266 463.427L160.185 463.65L160.185 463.887C160.181 465.076 160.845 466.077 161.329 466.81C161.377 466.883 161.425 466.954 161.469 467.022C161.905 467.695 162.119 468.362 162.366 469.135C162.551 469.713 162.743 470.311 163.039 470.957C163.216 471.345 163.399 471.684 163.56 471.985C163.966 472.739 164.211 473.195 164.184 473.975C164.128 475.6 164.204 477.194 164.43 479.141C164.507 479.804 164.537 480.502 164.569 481.241C164.621 482.442 164.676 483.686 164.939 484.879C165.155 485.86 165.856 486.422 166.32 486.794C166.478 486.921 166.717 487.113 166.754 487.186C166.832 487.395 166.81 487.726 166.787 488.074C166.734 488.869 166.635 490.328 168.139 491.209C168.277 491.411 168.46 491.907 168.682 492.682C168.705 492.764 168.726 492.837 168.745 492.903L168.847 493.238C169.533 495.518 170.243 497.874 171.241 500.092C171.737 501.19 172.333 502.335 173.323 503.267C173.98 503.889 174.78 504.074 175.423 504.226C175.637 504.277 175.953 504.35 176.076 504.414C177.372 506.381 178.823 507.952 180.359 509.615L180.514 509.784C180.672 509.954 180.784 510.541 180.866 510.972C180.981 511.573 181.112 512.255 181.448 512.868C181.619 513.18 181.764 513.461 181.899 513.723C182.34 514.577 182.721 515.314 183.547 516.313C183.764 516.574 183.82 516.917 183.901 517.5C184.006 518.259 184.137 519.204 184.897 520.055C185.533 520.766 185.63 521.523 185.761 522.913L185.776 523.073C185.868 524.018 186.305 524.656 186.623 525.123C186.836 525.435 186.958 525.621 186.988 525.818C187.027 526.068 187.008 526.476 186.988 526.872C186.943 527.808 186.887 528.975 187.479 529.941C187.589 530.116 187.728 530.435 187.864 530.744C188.266 531.666 188.761 532.799 189.745 533.386C189.768 533.545 189.774 533.793 189.778 533.957C189.795 534.59 189.825 535.751 190.863 536.2C190.839 536.233 190.815 536.268 190.793 536.302C189.829 537.819 191.244 540.788 191.409 541.122C192.47 543.265 192.826 545.333 193.238 547.726C193.37 548.49 193.506 549.279 193.672 550.104C193.888 551.165 194.404 551.918 194.82 552.522C195.109 552.945 195.338 553.277 195.425 553.625C195.513 553.977 195.461 554.391 195.402 554.872C195.272 555.914 195.077 557.489 196.691 558.751C197.228 559.169 197.411 559.734 197.688 560.695C197.81 561.117 197.936 561.554 198.12 562.012C198.717 563.498 199.934 564.303 201.008 565.014C201.637 565.431 202.232 565.825 202.618 566.299C202.763 566.476 202.921 566.693 203.089 566.921C203.988 568.143 205.33 569.97 207.509 569.697C207.597 570.177 207.724 570.817 208.125 571.453C209.495 573.621 211.277 574.114 212.709 574.508C213.786 574.805 214.637 575.038 215.388 575.885C216.599 577.265 217.789 577.956 219.027 577.998C219.068 578 219.109 578 219.15 578C220.89 578 222.157 576.74 223.383 575.522C223.734 575.173 224.097 574.812 224.463 574.489C226.255 572.908 228.698 571.723 231.725 570.964C234.995 570.144 234.856 563.974 234.647 562.493C234.492 561.385 234.53 560.103 234.732 559.556C235 559.049 236.509 557.865 237.127 557.741C239.181 558.303 240.359 557.834 241.496 557.38C241.914 557.214 242.344 557.044 242.851 556.908C243.447 556.751 244.098 556.722 244.787 556.691C245.563 556.656 246.365 556.621 247.213 556.408C247.342 556.377 247.725 556.34 248.033 556.311C249.439 556.182 251.025 556.032 251.654 554.914C251.69 554.882 251.741 554.838 251.779 554.805C252.122 554.509 252.695 554.019 252.726 553.193C252.737 552.839 252.647 552.314 252.157 551.827C251.927 551.595 251.727 551.355 251.513 551.099C251.14 550.652 250.717 550.146 250.095 549.653C249.417 549.113 249.065 548.606 249.016 548.105C248.912 547.038 250.133 545.601 251.211 544.334C251.395 544.115 251.579 543.899 251.759 543.682L251.996 543.394C252.935 542.257 253.905 541.078 254.997 540.34C255.349 540.101 255.586 539.743 255.662 539.333C255.797 538.614 255.422 538.069 255.119 537.63C255.006 537.466 254.776 537.132 254.747 536.982C254.755 536.971 254.764 536.957 254.782 536.935C255.817 535.655 256.249 535.695 256.792 535.905C258.978 536.744 260.26 536.875 262.754 536.514L263.005 536.477C265.12 536.184 267.44 535.74 268.239 534.209C268.547 533.614 268.839 532.465 267.342 531.462C267.307 531.438 267.263 531.407 267.231 531.386C267.145 531.159 267.158 530.547 267.165 530.246C267.169 530.065 267.172 529.895 267.169 529.746C267.161 529.385 267.2 528.927 267.242 528.442C267.344 527.251 267.459 525.904 266.995 524.777C266.431 523.44 266.224 521.934 266.471 520.94C266.861 519.371 267.156 517.276 265.971 514.985C265.891 514.832 265.804 514.674 265.712 514.508C265.44 514.01 265.132 513.446 265.045 513.021C264.996 512.779 265.025 512.757 265.114 512.689C267.353 510.981 266.088 509.252 265.61 508.599C265.501 508.449 265.34 508.229 265.297 508.121C265.486 507.24 265.796 506.363 266.124 505.435C266.288 504.97 266.458 504.488 266.611 504.007L266.729 503.635C267.221 502.076 267.275 501.914 268.512 500.905C268.793 500.677 269.71 499.877 270.548 499.061C272.262 497.396 272.572 496.754 272.566 496.089C272.557 494.874 271.588 494.064 270.811 493.413C270.795 493.401 270.778 493.386 270.762 493.373C270.989 493.271 271.219 493.173 271.405 493.092C272.532 492.609 273.19 492.315 273.605 491.914C274.391 491.15 274.821 490.105 275.239 489.093C275.492 488.475 275.733 487.892 276.004 487.503C277.266 485.727 277.053 483.808 276.863 482.114C276.819 481.718 276.777 481.344 276.752 480.97C276.63 479.154 276.028 477.685 274.956 476.583C275.031 476.543 275.106 476.493 275.181 476.439C276.242 475.638 275.753 474.117 275.463 473.209C274.862 471.327 274.03 468.865 272.909 466.524C272.763 466.219 272.583 465.913 272.393 465.59C271.833 464.634 271.358 463.744 271.666 463.38C271.945 463.05 272.233 462.792 272.51 462.545C273.33 461.811 274.349 460.9 273.967 458.791C273.673 457.161 272.999 455.616 272.348 454.121C271.609 452.431 270.913 450.833 270.822 449.288C270.642 446.221 272.84 442.081 274.956 439.229C275.622 438.332 276.657 437.079 277.977 436.555C278.894 436.191 280.223 436.227 280.881 437.01C280.972 437.119 281.074 437.263 281.18 437.416C281.577 437.985 282.12 438.764 283.141 439.03C284.793 439.461 286.058 438.142 286.472 437.71C289.347 434.712 291.51 431.028 292.73 427.058C292.887 426.545 293.149 425.69 293.454 425.57C293.725 425.46 294.385 425.869 294.916 426.197C295.253 426.405 295.601 426.62 295.975 426.803C298.499 428.032 301.289 427.147 303.704 426.223C306.077 425.315 308.77 424.286 310.753 422.183C312.801 420.015 313.894 416.353 312.024 413.552C311.958 413.452 311.887 413.351 311.816 413.249C311.718 413.111 311.572 412.903 311.486 412.748C311.523 412.72 311.556 412.693 311.575 412.677C314.911 410.058 318.585 407.901 322.495 406.263L322.951 406.073C325.302 405.098 327.967 403.99 329.327 401.485C329.929 400.376 330.151 399.207 330.365 398.075C330.57 396.991 330.766 395.968 331.281 395.211C332.083 394.037 333.644 393.477 335.297 392.884C335.722 392.733 336.163 392.575 336.593 392.405C342.206 390.182 345.329 385.484 348.35 380.941C348.825 380.225 349.319 379.482 349.81 378.768L351.357 376.521C353.171 373.885 355.047 371.161 357.55 369.232C357.818 369.026 358.099 368.819 358.381 368.611C359.728 367.62 361.325 366.445 362.1 364.777C363.708 365.024 365.341 364.335 366.169 363.987C366.561 363.821 367.005 363.639 367.49 363.438C374.273 360.644 388.316 354.856 386.527 346.079C386.731 345.816 387.251 345.387 387.517 345.167C387.876 344.87 388.186 344.614 388.42 344.339C390.243 342.187 390.105 339.109 389.961 337.885C389.754 336.121 388.7 335.2 387.852 334.46C387.39 334.055 386.989 333.705 386.717 333.244C386.682 333.111 386.713 332.529 388.576 330.68L388.618 330.639C389.006 330.255 389.754 330.132 390.545 330.003C391.657 329.823 393.04 329.598 393.987 328.468C394.276 328.124 395.791 328.057 396.516 328.024C397.138 327.997 397.729 327.972 398.253 327.873C398.441 327.838 398.656 327.813 398.884 327.787C399.929 327.663 401.873 327.433 402.307 325.336C402.367 325.037 402.451 324.643 402.512 324.47C402.676 324.39 403.062 324.26 403.432 324.135L403.459 324.126C403.667 324.054 403.848 323.958 403.999 323.843C404.006 323.854 404.009 323.863 404.016 323.872C404.648 324.997 405.87 324.689 408.087 324.129C408.493 324.027 409.041 323.888 409.225 323.861C411.654 323.848 412.604 322.803 413.598 321.182C413.941 321.233 414.498 321.39 414.898 321.503C416.621 321.99 419.832 322.896 421.027 319.953C422.418 316.522 422.112 313.519 420.06 310.501C419.781 310.096 419.281 308.329 419.234 307.589C419.116 305.876 418.79 305.278 417.991 303.834L417.9 303.668C417.699 303.299 417.783 302.805 417.937 302.03C418.075 301.337 418.23 300.553 418.102 299.701C418.021 299.183 417.934 298.76 417.867 298.419C417.645 297.338 417.622 297.225 418.351 296.092C418.921 295.208 419.029 294.159 418.656 293.14C418.186 291.85 416.96 290.709 415.61 290.299C415.308 290.205 415.046 290.147 414.827 290.105C414.834 289.954 414.844 289.773 414.861 289.563C415.026 287.078 414.223 285.422 412.164 284.027C411.643 283.673 411.324 283.316 411.291 283.048C411.257 282.781 411.479 282.36 411.892 281.895C413.541 280.05 413.45 278.713 413.34 277.022C413.329 276.876 413.319 276.725 413.309 276.565C413.286 276.143 413.353 275.605 413.424 275.035C413.561 273.935 413.716 272.687 413.299 271.522C412.396 268.98 409.565 269.226 407.694 269.388C406.821 269.463 405.501 269.578 405.168 269.297C403.949 268.272 402.679 265.903 402.871 265.303C402.908 265.284 403.019 265.23 403.257 265.2C406.669 264.76 407.009 261.488 407.136 260.255C407.18 259.82 407.24 259.624 407.267 259.554C407.334 259.517 407.455 259.462 407.553 259.422C407.852 259.291 408.261 259.11 408.738 258.79C409.037 258.594 410.166 258.499 410.918 258.437C412.758 258.286 414.844 258.113 415.936 256.647C416.523 255.855 416.695 254.856 416.443 253.679C416.389 253.42 416.345 253.185 416.305 252.972C415.929 250.964 415.526 250.078 413.034 249.39C413.014 249.385 413 249.381 412.99 249.378C412.933 249.272 412.869 248.967 412.826 248.761C412.664 247.975 412.392 246.658 410.921 246.069C409.951 245.679 408.94 246.029 408.127 246.31C407.909 246.385 407.59 246.496 407.371 246.545C406.831 245.752 406.196 245.221 405.628 244.747C405.165 244.357 404.762 244.019 404.463 243.587C403.795 242.605 402.79 242.338 402.061 242.145C401.867 242.094 401.685 242.045 401.531 241.991C401.548 241.675 401.83 240.741 403.066 239.149C403.68 238.352 404.325 237.664 404.819 237.193C404.99 237.465 405.151 237.781 405.326 238.117C405.541 238.534 405.763 238.964 406.038 239.384C406.75 240.469 407.949 241.282 409.098 241.45C409.961 241.574 410.787 241.349 411.422 240.815C411.862 240.442 412.117 240.002 412.322 239.649C412.426 239.471 412.523 239.303 412.604 239.216C412.859 238.94 413.544 238.944 414.132 239.223C414.646 239.468 415.14 239.868 415.66 240.288C415.976 240.546 416.302 240.808 416.658 241.06C418.663 242.473 421.548 243.044 423.912 242.187C423.869 245.179 423.875 248.188 423.929 251.165C423.946 252.024 423.973 253.32 424.816 254.36C425.511 255.215 426.492 255.57 427.449 255.826C433.484 257.445 439.802 257.09 445.914 256.745C446.324 256.721 446.737 256.699 447.147 256.676L464.242 255.736C464.108 256.635 464.185 257.558 464.252 258.383C464.343 259.448 464.43 260.456 464.114 261.178C463.836 261.816 463.157 262.473 462.499 263.106C461.511 264.06 460.336 265.192 460.185 266.691C454.106 268.717 448.339 273.41 448.423 279.821C448.45 282.262 449.34 284.545 450.196 286.753C451.238 289.434 452.222 291.967 451.429 294.309L450.952 295.711L452.386 296.076C453.552 296.37 454.788 296.273 455.893 295.833C456.282 296.42 456.867 296.905 457.609 297.241C459.301 298.011 461.861 297.941 463.476 296.318C465.639 294.141 465.787 291.015 465.918 288.256L465.928 288.059C465.998 286.578 466.2 284.667 467.016 283.325C468.151 285.654 469.159 288.057 470.012 290.493C470.254 291.185 470.452 291.803 470.428 292.355C470.415 292.657 470.331 293.003 470.244 293.371C470.136 293.822 470.012 294.33 469.988 294.887C469.918 296.265 470.449 297.475 470.915 298.541L471.013 298.769C472.826 302.951 473.814 307.572 473.871 312.129L473.874 312.239C473.894 313.917 473.918 316.005 475.402 317.456C476.585 318.614 478.449 318.523 479.597 317.85C479.765 317.752 479.92 317.642 480.057 317.526C480.4 317.69 480.776 317.812 481.179 317.887C482.664 318.16 484.293 317.733 485.428 316.776C487.342 315.158 487.92 312.609 488.189 310.831C488.854 306.418 488.521 301.829 487.231 297.559C486.63 295.573 486.617 294.302 487.194 293.975C487.342 293.891 487.597 293.829 487.869 293.763C488.34 293.649 488.924 293.505 489.471 293.125C491.99 291.38 491.712 285.956 491.127 279.577C491.016 278.372 490.922 277.33 490.916 276.721C490.912 276.306 490.902 275.332 491.215 275.062C491.272 275.013 491.463 274.892 491.964 274.861C492.87 274.806 493.831 275.04 494.845 275.29C495.554 275.461 496.283 275.64 497.048 275.736C499.396 276.028 502.274 275.191 503.043 272.658C503.299 271.825 503.238 271.03 503.188 270.328C503.174 270.165 503.161 270.001 503.154 269.841C503.027 266.983 504.528 264.319 506.117 261.499C506.446 260.909 506.792 260.297 507.117 259.692C508.676 256.767 510.829 251.245 507.719 247.118C507.645 247.023 507.571 246.928 507.497 246.833C507.332 246.627 507.111 246.347 507.087 246.221C507.037 245.936 507.823 245.216 508.159 244.908C513.028 240.435 515.144 233.145 513.418 226.761C513.337 226.468 513.25 226.176 513.163 225.88C512.908 225.017 512.662 224.201 512.659 223.428C512.656 222.722 512.961 221.862 513.539 221.65C513.714 221.587 513.972 221.556 514.244 221.526C514.51 221.496 514.805 221.462 515.117 221.388C517.67 220.8 518.882 218.371 519.856 216.419C519.934 216.264 520.014 216.11 520.092 215.955C522.268 211.661 525.875 208.194 530.255 206.195C531.944 205.422 533.217 205.241 534.14 205.64C534.684 205.872 535.192 206.349 535.729 206.85C536.038 207.139 536.354 207.435 536.71 207.717C538.352 209.031 540.307 209.303 541.687 208.409C543.487 207.247 543.554 204.79 542.58 203.181C541.962 202.153 541.049 201.521 540.243 200.964C539.313 200.322 538.735 199.892 538.54 199.183C538.234 198.064 539.339 197.069 541.19 195.557C543.091 194.012 545.452 192.087 544.921 189.234C544.79 188.515 544.495 187.826 544.206 187.164C544.072 186.849 543.88 186.395 543.773 186.046H543.769Z" fill="#5C5C5C"/>
<path d="M210.999 138.772C210.135 138.772 209.28 138.943 208.482 139.273C207.684 139.604 206.959 140.088 206.348 140.699C205.737 141.31 205.253 142.035 204.922 142.833C204.592 143.631 204.422 144.486 204.422 145.35C204.422 150 210.999 158.877 210.999 158.877C210.999 158.877 217.576 150.485 217.576 145.35C217.576 144.486 217.406 143.631 217.075 142.833C216.745 142.035 216.26 141.31 215.649 140.699C215.039 140.088 214.314 139.604 213.516 139.273C212.718 138.943 211.863 138.772 210.999 138.772ZM210.999 148.991C210.279 148.991 209.575 148.778 208.976 148.378C208.377 147.978 207.91 147.409 207.635 146.744C207.359 146.078 207.287 145.346 207.427 144.64C207.568 143.934 207.914 143.285 208.424 142.775C208.933 142.266 209.582 141.919 210.288 141.779C210.994 141.638 211.726 141.71 212.392 141.986C213.057 142.261 213.626 142.728 214.026 143.327C214.426 143.925 214.64 144.629 214.64 145.35C214.64 146.315 214.256 147.241 213.573 147.924C212.891 148.607 211.964 148.991 210.999 148.991V148.991Z" fill="#EF3C49"/>
<path d="M210.999 160.99C207.919 160.99 203.338 160.429 203.338 158.883C203.338 157.812 205.44 157.284 207.203 157.029C207.288 157.018 207.373 157.042 207.441 157.094C207.509 157.146 207.554 157.223 207.566 157.308C207.579 157.392 207.557 157.479 207.507 157.548C207.456 157.617 207.381 157.664 207.296 157.678C204.89 158.026 203.994 158.602 203.994 158.883C203.994 159.376 206.466 160.334 210.999 160.334C215.532 160.334 218.004 159.376 218.004 158.883C218.004 158.62 217.09 157.967 214.265 157.62C214.18 157.607 214.103 157.562 214.051 157.494C213.999 157.426 213.976 157.34 213.987 157.255C213.997 157.17 214.04 157.092 214.107 157.039C214.174 156.985 214.259 156.96 214.345 156.968C215.957 157.166 218.66 157.678 218.66 158.883C218.66 160.429 214.079 160.99 210.999 160.99Z" fill="#20222F"/>
<path d="M234.999 154.772C234.135 154.772 233.28 154.943 232.482 155.273C231.684 155.604 230.959 156.088 230.348 156.699C229.737 157.31 229.253 158.035 228.922 158.833C228.592 159.631 228.422 160.486 228.422 161.35C228.422 166 234.999 174.877 234.999 174.877C234.999 174.877 241.576 166.485 241.576 161.35C241.576 160.486 241.406 159.631 241.075 158.833C240.745 158.035 240.26 157.31 239.649 156.699C239.039 156.088 238.314 155.604 237.516 155.273C236.718 154.943 235.863 154.772 234.999 154.772ZM234.999 164.991C234.279 164.991 233.575 164.778 232.976 164.378C232.377 163.978 231.91 163.409 231.635 162.744C231.359 162.078 231.287 161.346 231.427 160.64C231.568 159.934 231.914 159.285 232.424 158.775C232.933 158.266 233.582 157.919 234.288 157.779C234.994 157.638 235.726 157.71 236.392 157.986C237.057 158.261 237.626 158.728 238.026 159.327C238.426 159.925 238.64 160.629 238.64 161.35C238.64 162.315 238.256 163.241 237.573 163.924C236.891 164.607 235.964 164.991 234.999 164.991V164.991Z" fill="#EF3C49"/>
<path d="M234.999 176.99C231.919 176.99 227.338 176.429 227.338 174.883C227.338 173.812 229.44 173.284 231.203 173.029C231.288 173.018 231.373 173.042 231.441 173.094C231.509 173.146 231.554 173.223 231.566 173.308C231.579 173.392 231.557 173.479 231.507 173.548C231.456 173.617 231.381 173.664 231.296 173.678C228.89 174.026 227.994 174.602 227.994 174.883C227.994 175.376 230.466 176.334 234.999 176.334C239.532 176.334 242.004 175.376 242.004 174.883C242.004 174.62 241.09 173.967 238.265 173.62C238.18 173.607 238.103 173.562 238.051 173.494C237.999 173.426 237.976 173.34 237.987 173.255C237.997 173.17 238.04 173.092 238.107 173.039C238.174 172.985 238.259 172.96 238.345 172.968C239.957 173.166 242.66 173.678 242.66 174.883C242.66 176.429 238.079 176.99 234.999 176.99Z" fill="#20222F"/>
<path d="M186.999 163.772C186.135 163.772 185.28 163.943 184.482 164.273C183.684 164.604 182.959 165.088 182.348 165.699C181.737 166.31 181.253 167.035 180.922 167.833C180.592 168.631 180.422 169.486 180.422 170.35C180.422 175 186.999 183.877 186.999 183.877C186.999 183.877 193.576 175.485 193.576 170.35C193.576 169.486 193.406 168.631 193.075 167.833C192.745 167.035 192.26 166.31 191.649 165.699C191.039 165.088 190.314 164.604 189.516 164.273C188.718 163.943 187.863 163.772 186.999 163.772ZM186.999 173.991C186.279 173.991 185.575 173.778 184.976 173.378C184.377 172.978 183.91 172.409 183.635 171.744C183.359 171.078 183.287 170.346 183.427 169.64C183.568 168.934 183.914 168.285 184.424 167.775C184.933 167.266 185.582 166.919 186.288 166.779C186.994 166.638 187.726 166.71 188.392 166.986C189.057 167.261 189.626 167.728 190.026 168.327C190.426 168.925 190.64 169.629 190.64 170.35C190.64 171.315 190.256 172.241 189.573 172.924C188.891 173.607 187.964 173.991 186.999 173.991V173.991Z" fill="#EF3C49"/>
<path d="M186.999 185.99C183.919 185.99 179.338 185.429 179.338 183.883C179.338 182.812 181.44 182.284 183.203 182.029C183.288 182.018 183.373 182.042 183.441 182.094C183.509 182.146 183.554 182.223 183.566 182.308C183.579 182.392 183.557 182.479 183.507 182.548C183.456 182.617 183.381 182.664 183.296 182.678C180.89 183.026 179.994 183.602 179.994 183.883C179.994 184.376 182.466 185.334 186.999 185.334C191.532 185.334 194.004 184.376 194.004 183.883C194.004 183.62 193.09 182.967 190.265 182.62C190.18 182.607 190.103 182.562 190.051 182.494C189.999 182.426 189.976 182.34 189.987 182.255C189.997 182.17 190.04 182.092 190.107 182.039C190.174 181.985 190.259 181.96 190.345 181.968C191.957 182.166 194.66 182.678 194.66 183.883C194.66 185.429 190.079 185.99 186.999 185.99Z" fill="#20222F"/>
<path d="M218.999 170.772C218.135 170.772 217.28 170.943 216.482 171.273C215.684 171.604 214.959 172.088 214.348 172.699C213.737 173.31 213.253 174.035 212.922 174.833C212.592 175.631 212.422 176.486 212.422 177.35C212.422 182 218.999 190.877 218.999 190.877C218.999 190.877 225.576 182.485 225.576 177.35C225.576 176.486 225.406 175.631 225.075 174.833C224.745 174.035 224.26 173.31 223.649 172.699C223.039 172.088 222.314 171.604 221.516 171.273C220.718 170.943 219.863 170.772 218.999 170.772ZM218.999 180.991C218.279 180.991 217.575 180.778 216.976 180.378C216.377 179.978 215.91 179.409 215.635 178.744C215.359 178.078 215.287 177.346 215.427 176.64C215.568 175.934 215.914 175.285 216.424 174.775C216.933 174.266 217.582 173.919 218.288 173.779C218.994 173.638 219.726 173.71 220.392 173.986C221.057 174.261 221.626 174.728 222.026 175.327C222.426 175.925 222.64 176.629 222.64 177.35C222.64 178.315 222.256 179.241 221.573 179.924C220.891 180.607 219.964 180.991 218.999 180.991V180.991Z" fill="#EF3C49"/>
<path d="M218.999 192.99C215.919 192.99 211.338 192.429 211.338 190.883C211.338 189.812 213.44 189.284 215.203 189.029C215.288 189.018 215.373 189.042 215.441 189.094C215.509 189.146 215.554 189.223 215.566 189.308C215.579 189.392 215.557 189.479 215.507 189.548C215.456 189.617 215.381 189.664 215.296 189.678C212.89 190.026 211.994 190.602 211.994 190.883C211.994 191.376 214.466 192.334 218.999 192.334C223.532 192.334 226.004 191.376 226.004 190.883C226.004 190.62 225.09 189.967 222.265 189.62C222.18 189.607 222.103 189.562 222.051 189.494C221.999 189.426 221.976 189.34 221.987 189.255C221.997 189.17 222.04 189.092 222.107 189.039C222.174 188.985 222.259 188.96 222.345 188.968C223.957 189.166 226.66 189.678 226.66 190.883C226.66 192.429 222.079 192.99 218.999 192.99Z" fill="#20222F"/>
<path d="M198.999 482.772C198.135 482.772 197.28 482.943 196.482 483.273C195.684 483.604 194.959 484.088 194.348 484.699C193.737 485.31 193.253 486.035 192.922 486.833C192.592 487.631 192.422 488.486 192.422 489.35C192.422 494 198.999 502.877 198.999 502.877C198.999 502.877 205.576 494.485 205.576 489.35C205.576 488.486 205.406 487.631 205.075 486.833C204.745 486.035 204.26 485.31 203.649 484.699C203.039 484.088 202.314 483.604 201.516 483.273C200.718 482.943 199.863 482.772 198.999 482.772ZM198.999 492.991C198.279 492.991 197.575 492.778 196.976 492.378C196.377 491.978 195.91 491.409 195.635 490.744C195.359 490.078 195.287 489.346 195.427 488.64C195.568 487.934 195.914 487.285 196.424 486.775C196.933 486.266 197.582 485.919 198.288 485.779C198.994 485.638 199.726 485.71 200.392 485.986C201.057 486.261 201.626 486.728 202.026 487.327C202.426 487.925 202.64 488.629 202.64 489.35C202.64 490.315 202.256 491.241 201.573 491.924C200.891 492.607 199.964 492.991 198.999 492.991V492.991Z" fill="#EF3C49"/>
<path d="M198.999 504.99C195.919 504.99 191.338 504.429 191.338 502.883C191.338 501.812 193.44 501.284 195.203 501.029C195.288 501.018 195.373 501.042 195.441 501.094C195.509 501.146 195.554 501.223 195.566 501.308C195.579 501.392 195.557 501.479 195.507 501.548C195.456 501.617 195.381 501.664 195.296 501.678C192.89 502.026 191.994 502.602 191.994 502.883C191.994 503.376 194.466 504.334 198.999 504.334C203.532 504.334 206.004 503.376 206.004 502.883C206.004 502.62 205.09 501.967 202.265 501.62C202.18 501.607 202.103 501.562 202.051 501.494C201.999 501.426 201.976 501.34 201.987 501.255C201.997 501.17 202.04 501.092 202.107 501.039C202.174 500.985 202.259 500.96 202.345 500.968C203.957 501.166 206.66 501.678 206.66 502.883C206.66 504.429 202.079 504.99 198.999 504.99Z" fill="#20222F"/>
<path d="M154.999 234.772C154.135 234.772 153.28 234.943 152.482 235.273C151.684 235.604 150.959 236.088 150.348 236.699C149.737 237.31 149.253 238.035 148.922 238.833C148.592 239.631 148.422 240.486 148.422 241.35C148.422 246 154.999 254.877 154.999 254.877C154.999 254.877 161.576 246.485 161.576 241.35C161.576 240.486 161.406 239.631 161.075 238.833C160.745 238.035 160.26 237.31 159.649 236.699C159.039 236.088 158.314 235.604 157.516 235.273C156.718 234.943 155.863 234.772 154.999 234.772ZM154.999 244.991C154.279 244.991 153.575 244.778 152.976 244.378C152.377 243.978 151.91 243.409 151.635 242.744C151.359 242.078 151.287 241.346 151.427 240.64C151.568 239.934 151.914 239.285 152.424 238.775C152.933 238.266 153.582 237.919 154.288 237.779C154.994 237.638 155.726 237.71 156.392 237.986C157.057 238.261 157.626 238.728 158.026 239.327C158.426 239.925 158.64 240.629 158.64 241.35C158.64 242.315 158.256 243.241 157.573 243.924C156.891 244.607 155.964 244.991 154.999 244.991V244.991Z" fill="#EF3C49"/>
<path d="M154.999 256.99C151.919 256.99 147.338 256.429 147.338 254.883C147.338 253.812 149.44 253.284 151.203 253.029C151.288 253.018 151.373 253.042 151.441 253.094C151.509 253.146 151.554 253.223 151.566 253.308C151.579 253.392 151.557 253.479 151.507 253.548C151.456 253.617 151.381 253.664 151.296 253.678C148.89 254.026 147.994 254.602 147.994 254.883C147.994 255.376 150.466 256.334 154.999 256.334C159.532 256.334 162.004 255.376 162.004 254.883C162.004 254.62 161.09 253.967 158.265 253.62C158.18 253.607 158.103 253.562 158.051 253.494C157.999 253.426 157.976 253.34 157.987 253.255C157.997 253.17 158.04 253.092 158.107 253.039C158.174 252.985 158.259 252.96 158.345 252.968C159.957 253.166 162.66 253.678 162.66 254.883C162.66 256.429 158.079 256.99 154.999 256.99Z" fill="#20222F"/>
<path d="M459.999 221.772C459.135 221.772 458.28 221.943 457.482 222.273C456.684 222.604 455.959 223.088 455.348 223.699C454.737 224.31 454.253 225.035 453.922 225.833C453.592 226.631 453.422 227.486 453.422 228.35C453.422 233 459.999 241.877 459.999 241.877C459.999 241.877 466.576 233.485 466.576 228.35C466.576 227.486 466.406 226.631 466.075 225.833C465.745 225.035 465.26 224.31 464.649 223.699C464.039 223.088 463.314 222.604 462.516 222.273C461.718 221.943 460.863 221.772 459.999 221.772ZM459.999 231.991C459.279 231.991 458.575 231.778 457.976 231.378C457.377 230.978 456.91 230.409 456.635 229.744C456.359 229.078 456.287 228.346 456.427 227.64C456.568 226.934 456.914 226.285 457.424 225.775C457.933 225.266 458.582 224.919 459.288 224.779C459.994 224.638 460.726 224.71 461.392 224.986C462.057 225.261 462.626 225.728 463.026 226.327C463.426 226.925 463.64 227.629 463.64 228.35C463.64 229.315 463.256 230.241 462.573 230.924C461.891 231.607 460.964 231.991 459.999 231.991V231.991Z" fill="#EF3C49"/>
<path d="M459.999 243.99C456.919 243.99 452.338 243.429 452.338 241.883C452.338 240.812 454.44 240.284 456.203 240.029C456.288 240.018 456.373 240.042 456.441 240.094C456.509 240.146 456.554 240.223 456.566 240.308C456.579 240.392 456.557 240.479 456.507 240.548C456.456 240.617 456.381 240.664 456.296 240.678C453.89 241.026 452.994 241.602 452.994 241.883C452.994 242.376 455.466 243.334 459.999 243.334C464.532 243.334 467.004 242.376 467.004 241.883C467.004 241.62 466.09 240.967 463.265 240.62C463.18 240.607 463.103 240.562 463.051 240.494C462.999 240.426 462.976 240.34 462.987 240.255C462.997 240.17 463.04 240.092 463.107 240.039C463.174 239.985 463.259 239.96 463.345 239.968C464.957 240.166 467.66 240.678 467.66 241.883C467.66 243.429 463.079 243.99 459.999 243.99Z" fill="#20222F"/>
</svg>
